<svg width="201" height="288" viewBox="0 0 201 288" fill="none" xmlns="http://www.w3.org/2000/svg">
<rect width="201" height="225" rx="5" fill="#57E400"/>
<mask id="mask0_22:1587" style="mask-type:alpha" maskUnits="userSpaceOnUse" x="0" y="0" width="201" height="225">
<rect width="201" height="225" rx="5" fill="#57E400"/>
</mask>
<g mask="url(#mask0_22:1587)">
<ellipse cx="188" cy="30.5" rx="35" ry="35.5" fill="white" fill-opacity="0.15"/>
<ellipse cx="32" cy="187" rx="55" ry="56" fill="white" fill-opacity="0.15"/>
<ellipse cx="1.5" cy="56" rx="31.5" ry="32" fill="white" fill-opacity="0.15"/>
<circle cx="125" cy="97" r="16" fill="white" fill-opacity="0.15"/>
<circle cx="171" cy="204" r="30" fill="white" fill-opacity="0.15"/>
</g>
<path d="M46.4723 88H49.0717L51.9908 77.794H52.1044L55.0163 88H57.6158L61.7209 73.4545H58.8871L56.2663 84.1506H56.1385L53.3331 73.4545H50.755L47.9567 84.1435H47.8217L45.201 73.4545H42.3672L46.4723 88ZM63.4343 88H66.0053V77.0909H63.4343V88ZM64.7269 75.5426C65.5437 75.5426 66.2113 74.9176 66.2113 74.1506C66.2113 73.3764 65.5437 72.7514 64.7269 72.7514C63.9031 72.7514 63.2354 73.3764 63.2354 74.1506C63.2354 74.9176 63.9031 75.5426 64.7269 75.5426ZM74.0966 77.0909H71.9446V74.4773H69.3736V77.0909H67.8253V79.0795H69.3736V85.1449C69.3594 87.1974 70.8509 88.206 72.7827 88.1491C73.5142 88.1278 74.0185 87.9858 74.2955 87.8935L73.8622 85.8835C73.7202 85.919 73.429 85.983 73.1094 85.983C72.4631 85.983 71.9446 85.7557 71.9446 84.7188V79.0795H74.0966V77.0909ZM79.0522 81.608C79.0522 80.0312 80.0323 79.1222 81.4102 79.1222C82.7596 79.1222 83.555 79.9815 83.555 81.4517V88H86.1261V81.054C86.1261 78.419 84.6346 76.9489 82.369 76.9489C80.6928 76.9489 79.6275 77.7088 79.1232 78.9446H78.9954V73.4545H76.4812V88H79.0522V81.608ZM99.5955 73.4545H97.0884L93.4734 75.777V78.1918L96.8754 76.0185H96.9606V88H99.5955V73.4545ZM108.665 88.277C112.174 88.2841 114.269 85.5142 114.269 80.7415C114.269 75.9972 112.159 73.2557 108.665 73.2557C105.171 73.2557 103.069 75.9901 103.061 80.7415C103.061 85.5071 105.157 88.277 108.665 88.277ZM108.665 86.054C106.854 86.054 105.718 84.2358 105.725 80.7415C105.732 77.2756 106.861 75.4503 108.665 75.4503C110.476 75.4503 111.605 77.2756 111.613 80.7415C111.613 84.2358 110.483 86.054 108.665 86.054ZM117.674 88.1562C118.512 88.1562 119.23 87.4602 119.237 86.5938C119.23 85.7415 118.512 85.0455 117.674 85.0455C116.808 85.0455 116.105 85.7415 116.112 86.5938C116.105 87.4602 116.808 88.1562 117.674 88.1562ZM126.673 88.277C130.181 88.2841 132.277 85.5142 132.277 80.7415C132.277 75.9972 130.167 73.2557 126.673 73.2557C123.179 73.2557 121.076 75.9901 121.069 80.7415C121.069 85.5071 123.164 88.277 126.673 88.277ZM126.673 86.054C124.862 86.054 123.725 84.2358 123.733 80.7415C123.74 77.2756 124.869 75.4503 126.673 75.4503C128.484 75.4503 129.613 77.2756 129.62 80.7415C129.62 84.2358 128.491 86.054 126.673 86.054ZM140.013 88.277C143.521 88.2841 145.616 85.5142 145.616 80.7415C145.616 75.9972 143.507 73.2557 140.013 73.2557C136.518 73.2557 134.416 75.9901 134.409 80.7415C134.409 85.5071 136.504 88.277 140.013 88.277ZM140.013 86.054C138.202 86.054 137.065 84.2358 137.072 80.7415C137.08 77.2756 138.209 75.4503 140.013 75.4503C141.824 75.4503 142.953 77.2756 142.96 80.7415C142.96 84.2358 141.831 86.054 140.013 86.054ZM153.353 88.277C156.861 88.2841 158.956 85.5142 158.956 80.7415C158.956 75.9972 156.847 73.2557 153.353 73.2557C149.858 73.2557 147.756 75.9901 147.749 80.7415C147.749 85.5071 149.844 88.277 153.353 88.277ZM153.353 86.054C151.542 86.054 150.405 84.2358 150.412 80.7415C150.419 77.2756 151.549 75.4503 153.353 75.4503C155.164 75.4503 156.293 77.2756 156.3 80.7415C156.3 84.2358 155.171 86.054 153.353 86.054ZM22.2553 116.213C24.9968 116.213 26.744 114.587 26.9286 112.271H24.4712C24.2511 113.443 23.4059 114.118 22.2766 114.118C20.6715 114.118 19.6346 112.776 19.6346 110.545C19.6346 108.344 20.6928 107.023 22.2766 107.023C23.5124 107.023 24.2724 107.818 24.4712 108.869H26.9286C26.7511 106.504 24.9045 104.949 22.2411 104.949C19.0451 104.949 17.0281 107.257 17.0281 110.588C17.0281 113.891 18.9954 116.213 22.2553 116.213ZM33.7983 116.213C36.9943 116.213 39.0256 113.962 39.0256 110.588C39.0256 107.207 36.9943 104.949 33.7983 104.949C30.6023 104.949 28.571 107.207 28.571 110.588C28.571 113.962 30.6023 116.213 33.7983 116.213ZM33.8125 114.153C32.044 114.153 31.1776 112.577 31.1776 110.581C31.1776 108.585 32.044 106.987 33.8125 106.987C35.5526 106.987 36.419 108.585 36.419 110.581C36.419 112.577 35.5526 114.153 33.8125 114.153ZM41.2077 116H43.7788V105.091H41.2077V116ZM42.5004 103.543C43.3171 103.543 43.9847 102.918 43.9847 102.151C43.9847 101.376 43.3171 100.751 42.5004 100.751C41.6765 100.751 41.0089 101.376 41.0089 102.151C41.0089 102.918 41.6765 103.543 42.5004 103.543ZM48.9936 109.608C48.9936 108.031 49.9453 107.122 51.3018 107.122C52.63 107.122 53.4254 107.996 53.4254 109.452V116H55.9964V109.054C56.0036 106.44 54.5121 104.949 52.2607 104.949C50.6271 104.949 49.505 105.73 49.0078 106.945H48.88V105.091H46.4226V116H48.9936V109.608ZM67.2322 107.974C66.8771 106.128 65.3999 104.949 62.843 104.949C60.2152 104.949 58.4254 106.241 58.4325 108.259C58.4254 109.849 59.4055 110.901 61.5007 111.334L63.3615 111.724C64.3629 111.945 64.8317 112.349 64.8317 112.967C64.8317 113.713 64.022 114.274 62.8004 114.274C61.6214 114.274 60.8544 113.763 60.6342 112.783L58.1271 113.024C58.4467 115.027 60.13 116.213 62.8075 116.213C65.5348 116.213 67.4595 114.8 67.4666 112.733C67.4595 111.178 66.4581 110.226 64.3984 109.778L62.5376 109.381C61.4297 109.132 60.9893 108.749 60.9964 108.116C60.9893 107.378 61.8061 106.866 62.8786 106.866C64.0646 106.866 64.6896 107.513 64.8885 108.23L67.2322 107.974ZM76.1456 120.091C78.1484 120.091 79.3061 119.061 79.924 117.321L84.3061 105.105L81.5575 105.091L79.0362 113.33H78.9226L76.4084 105.091H73.6811L77.6371 116.227L77.4169 116.817C76.9411 118.06 76.1882 118.145 75.0661 117.818L74.4695 119.821C74.8175 119.963 75.4425 120.091 76.1456 120.091ZM90.478 116.213C93.674 116.213 95.7053 113.962 95.7053 110.588C95.7053 107.207 93.674 104.949 90.478 104.949C87.282 104.949 85.2507 107.207 85.2507 110.588C85.2507 113.962 87.282 116.213 90.478 116.213ZM90.4922 114.153C88.7237 114.153 87.8572 112.577 87.8572 110.581C87.8572 108.585 88.7237 106.987 90.4922 106.987C92.2322 106.987 93.0987 108.585 93.0987 110.581C93.0987 112.577 92.2322 114.153 90.4922 114.153ZM104.841 111.412C104.841 113.074 103.654 113.898 102.518 113.898C101.282 113.898 100.458 113.024 100.458 111.639V105.091H97.8874V112.037C97.8874 114.658 99.3789 116.142 101.524 116.142C103.157 116.142 104.308 115.283 104.805 114.061H104.919V116H107.412V105.091H104.841V111.412ZM119.775 116.213C122.516 116.213 124.263 114.587 124.448 112.271H121.991C121.771 113.443 120.925 114.118 119.796 114.118C118.191 114.118 117.154 112.776 117.154 110.545C117.154 108.344 118.212 107.023 119.796 107.023C121.032 107.023 121.792 107.818 121.991 108.869H124.448C124.271 106.504 122.424 104.949 119.761 104.949C116.565 104.949 114.548 107.257 114.548 110.588C114.548 113.891 116.515 116.213 119.775 116.213ZM129.699 116.22C131.41 116.22 132.433 115.418 132.902 114.501H132.987V116H135.458V108.699C135.458 105.815 133.108 104.949 131.027 104.949C128.733 104.949 126.971 105.972 126.403 107.96L128.804 108.301C129.059 107.555 129.784 106.916 131.041 106.916C132.234 106.916 132.887 107.527 132.887 108.599V108.642C132.887 109.381 132.113 109.416 130.189 109.622C128.072 109.849 126.048 110.482 126.048 112.939C126.048 115.084 127.618 116.22 129.699 116.22ZM130.366 114.331C129.294 114.331 128.527 113.841 128.527 112.896C128.527 111.909 129.386 111.497 130.537 111.334C131.211 111.241 132.561 111.071 132.895 110.801V112.087C132.895 113.301 131.914 114.331 130.366 114.331ZM140.615 109.608C140.615 108.031 141.566 107.122 142.923 107.122C144.251 107.122 145.047 107.996 145.047 109.452V116H147.618V109.054C147.625 106.44 146.133 104.949 143.882 104.949C142.248 104.949 141.126 105.73 140.629 106.945H140.501V105.091H138.044V116H140.615V109.608ZM159.936 120.318C162.884 120.318 165.057 118.969 165.057 116.178V105.091H162.522V106.895H162.38C161.989 106.107 161.172 104.949 159.248 104.949C156.726 104.949 154.745 106.923 154.745 110.51C154.745 114.068 156.726 115.844 159.24 115.844C161.108 115.844 161.982 114.842 162.38 114.04H162.507V116.107C162.507 117.712 161.442 118.372 159.979 118.372C158.431 118.372 157.749 117.641 157.436 117.001L155.121 117.562C155.59 119.089 157.159 120.318 159.936 120.318ZM159.958 113.827C158.26 113.827 157.365 112.506 157.365 110.496C157.365 108.514 158.246 107.058 159.958 107.058C161.613 107.058 162.522 108.429 162.522 110.496C162.522 112.577 161.598 113.827 159.958 113.827ZM172.522 116.213C175.064 116.213 176.811 114.97 177.266 113.074L174.865 112.804C174.517 113.727 173.665 114.21 172.557 114.21C170.895 114.21 169.794 113.116 169.773 111.249H177.373V110.46C177.373 106.632 175.071 104.949 172.387 104.949C169.262 104.949 167.223 107.243 167.223 110.609C167.223 114.033 169.233 116.213 172.522 116.213ZM169.78 109.516C169.858 108.124 170.888 106.952 172.422 106.952C173.9 106.952 174.894 108.031 174.908 109.516H169.78ZM184.995 105.091H182.843V102.477H180.272V105.091H178.724V107.08H180.272V113.145C180.258 115.197 181.749 116.206 183.681 116.149C184.413 116.128 184.917 115.986 185.194 115.893L184.761 113.884C184.619 113.919 184.327 113.983 184.008 113.983C183.362 113.983 182.843 113.756 182.843 112.719V107.08H184.995V105.091ZM41.2353 133.091H38.9696V132.232C38.9696 131.379 39.3248 130.903 40.2836 130.903C40.6884 130.903 41.0293 130.996 41.2424 131.06L41.7608 129.071C41.427 128.957 40.6955 128.773 39.8077 128.773C37.9114 128.773 36.3986 129.859 36.3986 132.061V133.091H34.7864V135.08H36.3986V144H38.9696V135.08H41.2353V133.091ZM43.2488 144H45.8198V137.587C45.8198 136.202 46.8638 135.222 48.2772 135.222C48.7104 135.222 49.2502 135.3 49.4703 135.371V133.006C49.236 132.963 48.8311 132.935 48.5471 132.935C47.2971 132.935 46.253 133.645 45.8553 134.909H45.7417V133.091H43.2488V144ZM55.5588 144.213C58.1014 144.213 59.8485 142.97 60.3031 141.074L57.9025 140.804C57.5545 141.727 56.7022 142.21 55.5943 142.21C53.9324 142.21 52.8315 141.116 52.8102 139.249H60.4096V138.46C60.4096 134.632 58.1085 132.949 55.4238 132.949C52.2988 132.949 50.2605 135.243 50.2605 138.609C50.2605 142.033 52.2704 144.213 55.5588 144.213ZM52.8173 137.516C52.8954 136.124 53.9252 134.952 55.4593 134.952C56.9366 134.952 57.9309 136.031 57.9451 137.516H52.8173ZM67.4142 144.213C69.9569 144.213 71.704 142.97 72.1586 141.074L69.758 140.804C69.41 141.727 68.5577 142.21 67.4498 142.21C65.7878 142.21 64.687 141.116 64.6657 139.249H72.2651V138.46C72.2651 134.632 69.964 132.949 67.2793 132.949C64.1543 132.949 62.1159 135.243 62.1159 138.609C62.1159 142.033 64.1259 144.213 67.4142 144.213ZM64.6728 137.516C64.7509 136.124 65.7807 134.952 67.3148 134.952C68.7921 134.952 69.7864 136.031 69.8006 137.516H64.6728ZM88.0233 135.974C87.6681 134.128 86.1909 132.949 83.6341 132.949C81.0062 132.949 79.2164 134.241 79.2235 136.259C79.2164 137.849 80.1966 138.901 82.2917 139.334L84.1525 139.724C85.1539 139.945 85.6227 140.349 85.6227 140.967C85.6227 141.713 84.813 142.274 83.5914 142.274C82.4125 142.274 81.6454 141.763 81.4252 140.783L78.9181 141.024C79.2377 143.027 80.921 144.213 83.5985 144.213C86.3258 144.213 88.2505 142.8 88.2576 140.733C88.2505 139.178 87.2491 138.226 85.1895 137.778L83.3287 137.381C82.2207 137.132 81.7804 136.749 81.7875 136.116C81.7804 135.378 82.5971 134.866 83.6696 134.866C84.8556 134.866 85.4806 135.513 85.6795 136.23L88.0233 135.974ZM92.9487 137.608C92.9487 136.031 93.9288 135.122 95.3066 135.122C96.6561 135.122 97.4515 135.982 97.4515 137.452V144H100.023V137.054C100.023 134.419 98.5311 132.949 96.2654 132.949C94.5893 132.949 93.524 133.709 93.0197 134.945H92.8919V129.455H90.3777V144H92.9487V137.608ZM102.643 144H105.214V133.091H102.643V144ZM103.936 131.543C104.753 131.543 105.42 130.918 105.42 130.151C105.42 129.376 104.753 128.751 103.936 128.751C103.112 128.751 102.444 129.376 102.444 130.151C102.444 130.918 103.112 131.543 103.936 131.543ZM107.858 148.091H110.429V142.281H110.536C110.941 143.077 111.786 144.192 113.661 144.192C116.232 144.192 118.156 142.153 118.156 138.56C118.156 134.923 116.175 132.949 113.654 132.949C111.729 132.949 110.926 134.107 110.536 134.895H110.387V133.091H107.858V148.091ZM110.379 138.545C110.379 136.429 111.289 135.058 112.943 135.058C114.655 135.058 115.536 136.514 115.536 138.545C115.536 140.591 114.641 142.082 112.943 142.082C111.303 142.082 110.379 140.662 110.379 138.545ZM120.358 148.091H122.929V142.281H123.036C123.441 143.077 124.286 144.192 126.161 144.192C128.732 144.192 130.656 142.153 130.656 138.56C130.656 134.923 128.675 132.949 126.154 132.949C124.229 132.949 123.426 134.107 123.036 134.895H122.887V133.091H120.358V148.091ZM122.879 138.545C122.879 136.429 123.789 135.058 125.443 135.058C127.155 135.058 128.036 136.514 128.036 138.545C128.036 140.591 127.141 142.082 125.443 142.082C123.803 142.082 122.879 140.662 122.879 138.545ZM132.858 144H135.429V133.091H132.858V144ZM134.151 131.543C134.968 131.543 135.635 130.918 135.635 130.151C135.635 129.376 134.968 128.751 134.151 128.751C133.327 128.751 132.659 129.376 132.659 130.151C132.659 130.918 133.327 131.543 134.151 131.543ZM140.644 137.608C140.644 136.031 141.596 135.122 142.952 135.122C144.28 135.122 145.076 135.996 145.076 137.452V144H147.647V137.054C147.654 134.44 146.162 132.949 143.911 132.949C142.278 132.949 141.155 133.73 140.658 134.945H140.53V133.091H138.073V144H140.644V137.608ZM155.005 148.318C157.952 148.318 160.126 146.969 160.126 144.178V133.091H157.59V134.895H157.448C157.057 134.107 156.241 132.949 154.316 132.949C151.795 132.949 149.813 134.923 149.813 138.51C149.813 142.068 151.795 143.844 154.309 143.844C156.177 143.844 157.05 142.842 157.448 142.04H157.576V144.107C157.576 145.712 156.51 146.372 155.047 146.372C153.499 146.372 152.817 145.641 152.505 145.001L150.189 145.562C150.658 147.089 152.228 148.318 155.005 148.318ZM155.026 141.827C153.329 141.827 152.434 140.506 152.434 138.496C152.434 136.514 153.314 135.058 155.026 135.058C156.681 135.058 157.59 136.429 157.59 138.496C157.59 140.577 156.667 141.827 155.026 141.827ZM165.907 129.455H163.158L163.385 139.724H165.672L165.907 129.455ZM164.529 144.156C165.367 144.156 166.084 143.46 166.091 142.594C166.084 141.741 165.367 141.045 164.529 141.045C163.662 141.045 162.959 141.741 162.966 142.594C162.959 143.46 163.662 144.156 164.529 144.156Z" fill="white"/>
<path d="M41.0568 169H42.1136V165.812H44.0227C46.0554 165.812 46.9716 164.577 46.9716 163.034C46.9716 161.491 46.0554 160.273 44.0057 160.273H41.0568V169ZM42.1136 164.875V161.21H43.9716C45.3906 161.21 45.9318 161.986 45.9318 163.034C45.9318 164.082 45.3906 164.875 43.9886 164.875H42.1136ZM52.6626 166.324C52.6626 167.551 51.7251 168.114 50.9751 168.114C50.1399 168.114 49.5433 167.5 49.5433 166.545V162.455H48.5376V166.614C48.5376 168.284 49.424 169.085 50.6513 169.085C51.6399 169.085 52.2876 168.557 52.5945 167.892H52.6626V169H53.6683V162.455H52.6626V166.324ZM55.5103 169H56.516V164.858C56.516 163.972 57.2148 163.324 58.1694 163.324C58.4379 163.324 58.7148 163.375 58.783 163.392V162.369C58.668 162.361 58.4038 162.352 58.2546 162.352C57.4705 162.352 56.7887 162.795 56.5501 163.443H56.4819V162.455H55.5103V169ZM62.435 169.136C63.8839 169.136 64.8384 168.25 65.0089 167.091H64.0032C63.8157 167.807 63.2191 168.233 62.435 168.233C61.2418 168.233 60.4748 167.244 60.4748 165.727C60.4748 164.244 61.2589 163.273 62.435 163.273C63.3214 163.273 63.8498 163.818 64.0032 164.415H65.0089C64.8384 163.188 63.7987 162.369 62.418 162.369C60.6452 162.369 59.4691 163.767 59.4691 165.761C59.4691 167.722 60.5941 169.136 62.435 169.136ZM67.4847 165.062C67.4847 163.92 68.2134 163.273 69.2063 163.273C70.1523 163.273 70.7234 163.869 70.7234 164.909V169H71.729V164.841C71.729 163.158 70.8342 162.369 69.4961 162.369C68.4648 162.369 67.8768 162.8 67.57 163.477H67.4847V160.273H66.479V169H67.4847V165.062ZM75.495 169.153C76.6371 169.153 77.2337 168.54 77.4382 168.114H77.4893V169H78.495V164.688C78.495 162.608 76.9098 162.369 76.0746 162.369C75.0859 162.369 73.9609 162.71 73.4496 163.903L74.4041 164.244C74.6257 163.767 75.1499 163.256 76.1087 163.256C77.0334 163.256 77.4893 163.746 77.4893 164.585V164.619C77.4893 165.105 76.995 165.062 75.8018 165.216C74.5874 165.374 73.2621 165.642 73.2621 167.142C73.2621 168.42 74.2507 169.153 75.495 169.153ZM75.6484 168.25C74.8473 168.25 74.2678 167.892 74.2678 167.193C74.2678 166.426 74.9666 166.188 75.7507 166.085C76.1768 166.034 77.3189 165.915 77.4893 165.71V166.631C77.4893 167.449 76.8416 168.25 75.6484 168.25ZM84.967 163.92C84.6516 162.991 83.9442 162.369 82.6488 162.369C81.2681 162.369 80.2454 163.153 80.2454 164.261C80.2454 165.165 80.7823 165.77 81.984 166.051L83.0749 166.307C83.7354 166.46 84.0465 166.776 84.0465 167.227C84.0465 167.79 83.4499 168.25 82.5124 168.25C81.69 168.25 81.1744 167.896 80.9954 167.193L80.0408 167.432C80.2752 168.544 81.1914 169.136 82.5295 169.136C84.0508 169.136 85.0863 168.305 85.0863 167.176C85.0863 166.264 84.5153 165.689 83.3477 165.403L82.3761 165.165C81.6005 164.973 81.2511 164.713 81.2511 164.21C81.2511 163.648 81.8477 163.239 82.6488 163.239C83.5266 163.239 83.8888 163.724 84.0636 164.176L84.967 163.92ZM89.3445 169.136C90.674 169.136 91.6456 168.472 91.9524 167.483L90.9808 167.21C90.7251 167.892 90.1328 168.233 89.3445 168.233C88.1641 168.233 87.3501 167.47 87.3033 166.068H92.0547V165.642C92.0547 163.205 90.6058 162.369 89.2422 162.369C87.4695 162.369 86.2933 163.767 86.2933 165.778C86.2933 167.79 87.4524 169.136 89.3445 169.136ZM87.3033 165.199C87.3714 164.18 88.0916 163.273 89.2422 163.273C90.3331 163.273 91.032 164.091 91.032 165.199H87.3033ZM101.596 163.92C101.281 162.991 100.573 162.369 99.2777 162.369C97.897 162.369 96.8743 163.153 96.8743 164.261C96.8743 165.165 97.4112 165.77 98.6129 166.051L99.7038 166.307C100.364 166.46 100.675 166.776 100.675 167.227C100.675 167.79 100.079 168.25 99.1413 168.25C98.3189 168.25 97.8033 167.896 97.6243 167.193L96.6697 167.432C96.9041 168.544 97.8203 169.136 99.1584 169.136C100.68 169.136 101.715 168.305 101.715 167.176C101.715 166.264 101.144 165.689 99.9766 165.403L99.005 165.165C98.2294 164.973 97.88 164.713 97.88 164.21C97.88 163.648 98.4766 163.239 99.2777 163.239C100.156 163.239 100.518 163.724 100.692 164.176L101.596 163.92ZM107.354 166.324C107.354 167.551 106.417 168.114 105.667 168.114C104.831 168.114 104.235 167.5 104.235 166.545V162.455H103.229V166.614C103.229 168.284 104.115 169.085 105.343 169.085C106.331 169.085 106.979 168.557 107.286 167.892H107.354V169H108.36V162.455H107.354V166.324ZM114.838 163.92C114.523 162.991 113.815 162.369 112.52 162.369C111.139 162.369 110.116 163.153 110.116 164.261C110.116 165.165 110.653 165.77 111.855 166.051L112.946 166.307C113.607 166.46 113.918 166.776 113.918 167.227C113.918 167.79 113.321 168.25 112.384 168.25C111.561 168.25 111.045 167.896 110.866 167.193L109.912 167.432C110.146 168.544 111.062 169.136 112.401 169.136C113.922 169.136 114.957 168.305 114.957 167.176C114.957 166.264 114.386 165.689 113.219 165.403L112.247 165.165C111.472 164.973 111.122 164.713 111.122 164.21C111.122 163.648 111.719 163.239 112.52 163.239C113.398 163.239 113.76 163.724 113.935 164.176L114.838 163.92ZM119.318 162.455H117.92V160.886H116.914V162.455H115.926V163.307H116.914V167.398C116.914 168.54 117.835 169.085 118.687 169.085C119.062 169.085 119.301 169.017 119.437 168.966L119.233 168.062C119.147 168.08 119.011 168.114 118.789 168.114C118.346 168.114 117.92 167.977 117.92 167.125V163.307H119.318V162.455ZM122.757 169.153C123.899 169.153 124.495 168.54 124.7 168.114H124.751V169H125.757V164.688C125.757 162.608 124.172 162.369 123.336 162.369C122.348 162.369 121.223 162.71 120.711 163.903L121.666 164.244C121.887 163.767 122.412 163.256 123.37 163.256C124.295 163.256 124.751 163.746 124.751 164.585V164.619C124.751 165.105 124.257 165.062 123.064 165.216C121.849 165.374 120.524 165.642 120.524 167.142C120.524 168.42 121.512 169.153 122.757 169.153ZM122.91 168.25C122.109 168.25 121.529 167.892 121.529 167.193C121.529 166.426 122.228 166.188 123.012 166.085C123.439 166.034 124.581 165.915 124.751 165.71V166.631C124.751 167.449 124.103 168.25 122.91 168.25ZM127.592 169H128.598V162.455H127.592V169ZM128.104 161.364C128.496 161.364 128.82 161.057 128.82 160.682C128.82 160.307 128.496 160 128.104 160C127.712 160 127.388 160.307 127.388 160.682C127.388 161.057 127.712 161.364 128.104 161.364ZM131.446 165.062C131.446 163.92 132.153 163.273 133.116 163.273C134.049 163.273 134.616 163.882 134.616 164.909V169H135.622V164.841C135.622 163.17 134.731 162.369 133.406 162.369C132.417 162.369 131.804 162.812 131.497 163.477H131.412V162.455H130.44V169H131.446V165.062ZM139.386 169.153C140.528 169.153 141.124 168.54 141.329 168.114H141.38V169H142.386V164.688C142.386 162.608 140.8 162.369 139.965 162.369C138.977 162.369 137.852 162.71 137.34 163.903L138.295 164.244C138.516 163.767 139.04 163.256 139.999 163.256C140.924 163.256 141.38 163.746 141.38 164.585V164.619C141.38 165.105 140.886 165.062 139.692 165.216C138.478 165.374 137.153 165.642 137.153 167.142C137.153 168.42 138.141 169.153 139.386 169.153ZM139.539 168.25C138.738 168.25 138.158 167.892 138.158 167.193C138.158 166.426 138.857 166.188 139.641 166.085C140.067 166.034 141.21 165.915 141.38 165.71V166.631C141.38 167.449 140.732 168.25 139.539 168.25ZM144.358 169H145.329V167.994H145.449C145.67 168.352 146.096 169.136 147.358 169.136C148.994 169.136 150.136 167.824 150.136 165.744C150.136 163.682 148.994 162.369 147.341 162.369C146.062 162.369 145.67 163.153 145.449 163.494H145.363V160.273H144.358V169ZM145.346 165.727C145.346 164.261 145.994 163.273 147.221 163.273C148.5 163.273 149.13 164.347 149.13 165.727C149.13 167.125 148.483 168.233 147.221 168.233C146.011 168.233 145.346 167.21 145.346 165.727ZM152.68 160.273H151.674V169H152.68V160.273ZM155.17 171.455C156.077 171.455 156.717 170.973 157.096 169.955L159.883 162.472L158.783 162.455L156.977 167.67H156.908L155.102 162.455H154.011L156.431 169.034L156.244 169.545C155.877 170.543 155.425 170.636 154.692 170.449L154.437 171.335C154.539 171.386 154.829 171.455 155.17 171.455Z" fill="white"/>
<g filter="url(#filter0_d_22:1587)">
<circle cx="29.0266" cy="34.0266" r="14.0266" fill="white"/>
</g>
<path d="M31.0191 32.0111L23.5049 39.5254" stroke="#57E400" stroke-width="1.0019" stroke-linecap="round" stroke-linejoin="round"/>
<path d="M25.0079 38.0226C22.0022 33.0131 26.0098 28.0036 34.5259 28.5046C35.0269 37.0207 30.0174 41.0283 25.0079 38.0226Z" stroke="#57E400" stroke-width="1.0019" stroke-linecap="round" stroke-linejoin="round"/>
<path d="M0.884943 270H3.03764V266.699H4.8473C7.18892 266.699 8.55114 265.302 8.55114 263.268C8.55114 261.245 7.21378 259.818 4.90199 259.818H0.884943V270ZM3.03764 264.974V261.578H4.48935C5.73224 261.578 6.33381 262.254 6.33381 263.268C6.33381 264.278 5.73224 264.974 4.49929 264.974H3.03764ZM11.8821 270.144C13.0107 270.144 13.7415 269.652 14.1143 268.941H14.174V270H16.1825V264.849C16.1825 263.03 14.6413 262.264 12.9411 262.264C11.1115 262.264 9.90838 263.139 9.61506 264.531L11.5739 264.69C11.718 264.183 12.1705 263.81 12.9311 263.81C13.652 263.81 14.0646 264.173 14.0646 264.8V264.83C14.0646 265.322 13.5426 265.386 12.2152 265.516C10.7038 265.655 9.34659 266.162 9.34659 267.867C9.34659 269.379 10.4254 270.144 11.8821 270.144ZM12.4886 268.683C11.8374 268.683 11.37 268.379 11.37 267.798C11.37 267.201 11.8622 266.908 12.608 266.803C13.0703 266.739 13.826 266.629 14.0795 266.46V267.271C14.0795 268.071 13.4183 268.683 12.4886 268.683ZM18.8597 272.864C20.4357 272.864 21.271 272.058 21.7035 270.825L24.6715 262.374L22.4293 262.364L20.8335 267.972H20.7539L19.1729 262.364H16.9457L19.685 270.219L19.5607 270.542C19.2823 271.258 18.7504 271.293 18.0046 271.064L17.5273 272.645C17.8306 272.774 18.3228 272.864 18.8597 272.864ZM28.8775 270.149C29.7674 270.149 30.7319 269.901 31.4826 269.314L32.0991 270H34.3065L32.7752 268.245C33.342 267.494 33.6999 266.415 33.6999 265.033H31.945C31.945 265.7 31.7809 266.291 31.5124 266.793L29.832 264.864L30.4286 264.437C31.2837 263.82 31.7809 263.045 31.7809 262.085C31.7809 260.783 30.7717 259.684 29.136 259.684C27.4656 259.684 26.3569 260.822 26.3569 262.299C26.3569 263.204 26.7944 263.96 27.3263 264.636C26.2177 265.396 25.4719 266.117 25.4719 267.295C25.4719 268.901 26.7596 270.149 28.8775 270.149ZM30.3391 268.041C29.9116 268.305 29.4442 268.449 28.9819 268.449C28.0969 268.449 27.5252 267.902 27.5252 267.176C27.5252 266.788 27.7887 266.341 28.3505 265.933L28.4102 265.893L30.3391 268.041ZM28.8129 263.656C28.435 263.179 28.1715 262.756 28.1715 262.334C28.1715 261.822 28.5593 261.394 29.1509 261.389C29.7475 261.384 30.0856 261.802 30.0856 262.205C30.0856 262.632 29.8519 262.985 29.3448 263.308L28.8129 263.656ZM44.7828 264.541C44.5939 263.134 43.4604 262.264 41.5314 262.264C39.5776 262.264 38.29 263.169 38.2949 264.641C38.29 265.784 39.0108 266.525 40.5023 266.823L41.8248 267.087C42.4909 267.221 42.7942 267.464 42.8042 267.847C42.7942 268.3 42.302 268.623 41.5613 268.623C40.8056 268.623 40.3034 268.3 40.1742 267.678L38.0911 267.788C38.29 269.249 39.5328 270.149 41.5563 270.149C43.535 270.149 44.9519 269.14 44.9569 267.634C44.9519 266.53 44.231 265.869 42.7495 265.565L41.3674 265.287C40.6564 265.133 40.3929 264.889 40.3979 264.521C40.3929 264.064 40.91 263.766 41.5662 263.766C42.302 263.766 42.7395 264.168 42.8439 264.661L44.7828 264.541ZM48.4084 265.585C48.4134 264.601 49.0149 264.024 49.88 264.024C50.7401 264.024 51.2472 264.576 51.2422 265.516V270H53.3601V265.138C53.3651 263.348 52.3111 262.264 50.7202 262.264C49.5618 262.264 48.7862 262.811 48.4382 263.711H48.3487V259.818H46.2905V270H48.4084V265.585ZM55.0268 270H57.1447V262.364H55.0268V270ZM56.0907 261.379C56.7221 261.379 57.2392 260.897 57.2392 260.305C57.2392 259.719 56.7221 259.237 56.0907 259.237C55.4643 259.237 54.9473 259.719 54.9473 260.305C54.9473 260.897 55.4643 261.379 56.0907 261.379ZM58.8413 272.864H60.9592V268.777H61.0238C61.3171 269.413 61.9585 270.124 63.1914 270.124C64.9315 270.124 66.2887 268.747 66.2887 266.192C66.2887 263.567 64.8718 262.264 63.1964 262.264C61.9187 262.264 61.3072 263.025 61.0238 263.646H60.9293V262.364H58.8413V272.864ZM60.9144 266.182C60.9144 264.82 61.4911 263.95 62.5202 263.95C63.5692 263.95 64.1261 264.859 64.1261 266.182C64.1261 267.514 63.5593 268.439 62.5202 268.439C61.5011 268.439 60.9144 267.544 60.9144 266.182ZM73.1184 270.144C74.247 270.144 74.9778 269.652 75.3507 268.941H75.4103V270H77.4189V264.849C77.4189 263.03 75.8777 262.264 74.1774 262.264C72.3478 262.264 71.1447 263.139 70.8514 264.531L72.8102 264.69C72.9544 264.183 73.4068 263.81 74.1674 263.81C74.8883 263.81 75.301 264.173 75.301 264.8V264.83C75.301 265.322 74.7789 265.386 73.4515 265.516C71.9402 265.655 70.5829 266.162 70.5829 267.867C70.5829 269.379 71.6618 270.144 73.1184 270.144ZM73.725 268.683C73.0737 268.683 72.6064 268.379 72.6064 267.798C72.6064 267.201 73.0985 266.908 73.8443 266.803C74.3066 266.739 75.0623 266.629 75.3159 266.46V267.271C75.3159 268.071 74.6547 268.683 73.725 268.683ZM81.8759 270.124C83.1088 270.124 83.7502 269.413 84.0435 268.777H84.133V270H86.2211V259.818H84.1081V263.646H84.0435C83.7601 263.025 83.1486 262.264 81.8709 262.264C80.1955 262.264 78.7786 263.567 78.7786 266.192C78.7786 268.747 80.1358 270.124 81.8759 270.124ZM82.5471 268.439C81.508 268.439 80.9412 267.514 80.9412 266.182C80.9412 264.859 81.498 263.95 82.5471 263.95C83.5762 263.95 84.1529 264.82 84.1529 266.182C84.1529 267.544 83.5662 268.439 82.5471 268.439ZM95.0817 262.364H92.8395L91.2585 267.827H91.179L89.593 262.364H87.3558L90.0256 270H92.4119L95.0817 262.364ZM96.9249 270.129C97.5613 270.129 98.1131 269.597 98.1181 268.936C98.1131 268.285 97.5613 267.753 96.9249 267.753C96.2686 267.753 95.7267 268.285 95.7317 268.936C95.7267 269.597 96.2686 270.129 96.9249 270.129Z" fill="#AAAAAA"/>
<defs>
<filter id="filter0_d_22:1587" x="12.5338" y="17.5338" width="32.9856" height="32.9855" filterUnits="userSpaceOnUse" color-interpolation-filters="sRGB">
<feFlood flood-opacity="0" result="BackgroundImageFix"/>
<feColorMatrix in="SourceAlpha" type="matrix" values="0 0 0 0 0 0 0 0 0 0 0 0 0 0 0 0 0 0 127 0" result="hardAlpha"/>
<feOffset/>
<feGaussianBlur stdDeviation="1.2331"/>
<feComposite in2="hardAlpha" operator="out"/>
<feColorMatrix type="matrix" values="0 0 0 0 0 0 0 0 0 0 0 0 0 0 0 0 0 0 0.1 0"/>
<feBlend mode="normal" in2="BackgroundImageFix" result="effect1_dropShadow_22:1587"/>
<feBlend mode="normal" in="SourceGraphic" in2="effect1_dropShadow_22:1587" result="shape"/>
</filter>
</defs>
</svg>
