<svg width="449" height="288" viewBox="0 0 449 288" fill="none" xmlns="http://www.w3.org/2000/svg">
    <rect width="449" height="225" rx="5" fill="#57E400"/>
    <mask id="mask0_22:2585" style="mask-type:alpha" maskUnits="userSpaceOnUse" x="0" y="0" width="449" height="225">
        <rect width="449" height="225" rx="5" fill="#57E400"/>
    </mask>
    <g mask="url(#mask0_22:2585)">
        <ellipse cx="386" cy="2.00002" rx="63" ry="59" fill="white" fill-opacity="0.15"/>
        <ellipse cx="58.9565" cy="208.895" rx="78.913" ry="74.0312" fill="white" fill-opacity="0.15"/>
        <ellipse cx="15.1956" cy="35.7149" rx="45.1956" ry="42.3035" fill="white" fill-opacity="0.15"/>
        <ellipse cx="272" cy="100.5" rx="29" ry="26.5" fill="white" fill-opacity="0.15"/>
        <ellipse cx="406" cy="225.5" rx="81" ry="74.5" fill="white" fill-opacity="0.15"/>
    </g>
    <path d="M121.213 98H123.812L126.731 87.794H126.845L129.757 98H132.356L136.461 83.4545H133.627L131.007 94.1506H130.879L128.073 83.4545H125.495L122.697 94.1435H122.562L119.941 83.4545H117.107L121.213 98ZM138.175 98H140.746V87.0909H138.175V98ZM139.467 85.5426C140.284 85.5426 140.952 84.9176 140.952 84.1506C140.952 83.3764 140.284 82.7514 139.467 82.7514C138.643 82.7514 137.976 83.3764 137.976 84.1506C137.976 84.9176 138.643 85.5426 139.467 85.5426ZM148.837 87.0909H146.685V84.4773H144.114V87.0909H142.566V89.0795H144.114V95.1449C144.1 97.1974 145.591 98.206 147.523 98.1491C148.254 98.1278 148.759 97.9858 149.036 97.8935L148.602 95.8835C148.46 95.919 148.169 95.983 147.85 95.983C147.203 95.983 146.685 95.7557 146.685 94.7188V89.0795H148.837V87.0909ZM153.792 91.608C153.792 90.0312 154.773 89.1222 156.15 89.1222C157.5 89.1222 158.295 89.9815 158.295 91.4517V98H160.866V91.054C160.866 88.419 159.375 86.9489 157.109 86.9489C155.433 86.9489 154.368 87.7088 153.863 88.9446H153.736V83.4545H151.221V98H153.792V91.608ZM174.336 83.4545H171.829L168.214 85.777V88.1918L171.616 86.0185H171.701V98H174.336V83.4545ZM183.405 98.277C186.914 98.2841 189.009 95.5142 189.009 90.7415C189.009 85.9972 186.9 83.2557 183.405 83.2557C179.911 83.2557 177.809 85.9901 177.802 90.7415C177.802 95.5071 179.897 98.277 183.405 98.277ZM183.405 96.054C181.594 96.054 180.458 94.2358 180.465 90.7415C180.472 87.2756 181.601 85.4503 183.405 85.4503C185.216 85.4503 186.346 87.2756 186.353 90.7415C186.353 94.2358 185.224 96.054 183.405 96.054ZM192.415 98.1562C193.253 98.1562 193.97 97.4602 193.977 96.5938C193.97 95.7415 193.253 95.0455 192.415 95.0455C191.548 95.0455 190.845 95.7415 190.852 96.5938C190.845 97.4602 191.548 98.1562 192.415 98.1562ZM201.413 98.277C204.922 98.2841 207.017 95.5142 207.017 90.7415C207.017 85.9972 204.907 83.2557 201.413 83.2557C197.919 83.2557 195.817 85.9901 195.809 90.7415C195.809 95.5071 197.905 98.277 201.413 98.277ZM201.413 96.054C199.602 96.054 198.466 94.2358 198.473 90.7415C198.48 87.2756 199.609 85.4503 201.413 85.4503C203.224 85.4503 204.354 87.2756 204.361 90.7415C204.361 94.2358 203.231 96.054 201.413 96.054ZM214.753 98.277C218.262 98.2841 220.357 95.5142 220.357 90.7415C220.357 85.9972 218.247 83.2557 214.753 83.2557C211.259 83.2557 209.156 85.9901 209.149 90.7415C209.149 95.5071 211.244 98.277 214.753 98.277ZM214.753 96.054C212.942 96.054 211.806 94.2358 211.813 90.7415C211.82 87.2756 212.949 85.4503 214.753 85.4503C216.564 85.4503 217.693 87.2756 217.7 90.7415C217.7 94.2358 216.571 96.054 214.753 96.054ZM228.093 98.277C231.601 98.2841 233.697 95.5142 233.697 90.7415C233.697 85.9972 231.587 83.2557 228.093 83.2557C224.599 83.2557 222.496 85.9901 222.489 90.7415C222.489 95.5071 224.584 98.277 228.093 98.277ZM228.093 96.054C226.282 96.054 225.145 94.2358 225.153 90.7415C225.16 87.2756 226.289 85.4503 228.093 85.4503C229.904 85.4503 231.033 87.2756 231.04 90.7415C231.04 94.2358 229.911 96.054 228.093 96.054ZM245.804 98.2131C248.546 98.2131 250.293 96.5866 250.477 94.2713H248.02C247.8 95.4432 246.955 96.1179 245.825 96.1179C244.22 96.1179 243.183 94.7756 243.183 92.5455C243.183 90.3438 244.242 89.0227 245.825 89.0227C247.061 89.0227 247.821 89.8182 248.02 90.8693H250.477C250.3 88.5043 248.453 86.9489 245.79 86.9489C242.594 86.9489 240.577 89.2571 240.577 92.5881C240.577 95.8906 242.544 98.2131 245.804 98.2131ZM257.347 98.2131C260.543 98.2131 262.574 95.9616 262.574 92.5881C262.574 89.2074 260.543 86.9489 257.347 86.9489C254.151 86.9489 252.12 89.2074 252.12 92.5881C252.12 95.9616 254.151 98.2131 257.347 98.2131ZM257.361 96.1534C255.593 96.1534 254.726 94.5767 254.726 92.581C254.726 90.5852 255.593 88.9872 257.361 88.9872C259.101 88.9872 259.968 90.5852 259.968 92.581C259.968 94.5767 259.101 96.1534 257.361 96.1534ZM264.757 98H267.328V87.0909H264.757V98ZM266.049 85.5426C266.866 85.5426 267.534 84.9176 267.534 84.1506C267.534 83.3764 266.866 82.7514 266.049 82.7514C265.225 82.7514 264.558 83.3764 264.558 84.1506C264.558 84.9176 265.225 85.5426 266.049 85.5426ZM272.542 91.608C272.542 90.0312 273.494 89.1222 274.851 89.1222C276.179 89.1222 276.974 89.9957 276.974 91.4517V98H279.545V91.054C279.552 88.4403 278.061 86.9489 275.809 86.9489C274.176 86.9489 273.054 87.7301 272.557 88.9446H272.429V87.0909H269.971V98H272.542V91.608ZM290.781 89.9744C290.426 88.1278 288.949 86.9489 286.392 86.9489C283.764 86.9489 281.974 88.2415 281.981 90.2585C281.974 91.8494 282.954 92.9006 285.05 93.3338L286.91 93.7244C287.912 93.9446 288.381 94.3494 288.381 94.9673C288.381 95.7131 287.571 96.2741 286.349 96.2741C285.17 96.2741 284.403 95.7628 284.183 94.7827L281.676 95.0241C281.996 97.027 283.679 98.2131 286.356 98.2131C289.084 98.2131 291.008 96.7997 291.015 94.733C291.008 93.1776 290.007 92.2259 287.947 91.7784L286.086 91.3807C284.979 91.1321 284.538 90.7486 284.545 90.1165C284.538 89.3778 285.355 88.8665 286.427 88.8665C287.613 88.8665 288.238 89.5128 288.437 90.2301L290.781 89.9744ZM299.694 102.091C301.697 102.091 302.855 101.061 303.473 99.321L307.855 87.1051L305.106 87.0909L302.585 95.3295H302.471L299.957 87.0909H297.23L301.186 98.2273L300.966 98.8168C300.49 100.06 299.737 100.145 298.615 99.8182L298.018 101.821C298.366 101.963 298.991 102.091 299.694 102.091ZM314.027 98.2131C317.223 98.2131 319.254 95.9616 319.254 92.5881C319.254 89.2074 317.223 86.9489 314.027 86.9489C310.831 86.9489 308.8 89.2074 308.8 92.5881C308.8 95.9616 310.831 98.2131 314.027 98.2131ZM314.041 96.1534C312.273 96.1534 311.406 94.5767 311.406 92.581C311.406 90.5852 312.273 88.9872 314.041 88.9872C315.781 88.9872 316.648 90.5852 316.648 92.581C316.648 94.5767 315.781 96.1534 314.041 96.1534ZM328.389 93.4119C328.389 95.0739 327.203 95.8977 326.067 95.8977C324.831 95.8977 324.007 95.0241 324.007 93.6392V87.0909H321.436V94.0369C321.436 96.6577 322.928 98.142 325.073 98.142C326.706 98.142 327.857 97.2827 328.354 96.0611H328.468V98H330.96V87.0909H328.389V93.4119ZM125.423 126.213C128.165 126.213 129.912 124.587 130.097 122.271H127.639C127.419 123.443 126.574 124.118 125.445 124.118C123.839 124.118 122.803 122.776 122.803 120.545C122.803 118.344 123.861 117.023 125.445 117.023C126.68 117.023 127.44 117.818 127.639 118.869H130.097C129.919 116.504 128.072 114.949 125.409 114.949C122.213 114.949 120.196 117.257 120.196 120.588C120.196 123.891 122.163 126.213 125.423 126.213ZM135.347 126.22C137.059 126.22 138.081 125.418 138.55 124.501H138.635V126H141.107V118.699C141.107 115.815 138.756 114.949 136.675 114.949C134.381 114.949 132.62 115.972 132.051 117.96L134.452 118.301C134.708 117.555 135.432 116.916 136.689 116.916C137.882 116.916 138.536 117.527 138.536 118.599V118.642C138.536 119.381 137.762 119.416 135.837 119.622C133.721 119.849 131.696 120.482 131.696 122.939C131.696 125.084 133.266 126.22 135.347 126.22ZM136.015 124.331C134.942 124.331 134.175 123.841 134.175 122.896C134.175 121.909 135.034 121.497 136.185 121.334C136.86 121.241 138.209 121.071 138.543 120.801V122.087C138.543 123.301 137.563 124.331 136.015 124.331ZM146.263 119.608C146.263 118.031 147.215 117.122 148.571 117.122C149.9 117.122 150.695 117.996 150.695 119.452V126H153.266V119.054C153.273 116.44 151.782 114.949 149.53 114.949C147.897 114.949 146.775 115.73 146.277 116.945H146.15V115.091H143.692V126H146.263V119.608ZM165.585 130.318C168.532 130.318 170.706 128.969 170.706 126.178V115.091H168.17V116.895H168.028C167.637 116.107 166.821 114.949 164.896 114.949C162.375 114.949 160.393 116.923 160.393 120.51C160.393 124.068 162.375 125.844 164.889 125.844C166.757 125.844 167.63 124.842 168.028 124.04H168.156V126.107C168.156 127.712 167.091 128.372 165.627 128.372C164.079 128.372 163.397 127.641 163.085 127.001L160.77 127.562C161.238 129.089 162.808 130.318 165.585 130.318ZM165.606 123.827C163.909 123.827 163.014 122.506 163.014 120.496C163.014 118.514 163.895 117.058 165.606 117.058C167.261 117.058 168.17 118.429 168.17 120.496C168.17 122.577 167.247 123.827 165.606 123.827ZM178.17 126.213C180.713 126.213 182.46 124.97 182.914 123.074L180.514 122.804C180.166 123.727 179.314 124.21 178.206 124.21C176.544 124.21 175.443 123.116 175.422 121.249H183.021V120.46C183.021 116.632 180.72 114.949 178.035 114.949C174.91 114.949 172.872 117.243 172.872 120.609C172.872 124.033 174.882 126.213 178.17 126.213ZM175.429 119.516C175.507 118.124 176.537 116.952 178.071 116.952C179.548 116.952 180.542 118.031 180.556 119.516H175.429ZM190.643 115.091H188.491V112.477H185.92V115.091H184.372V117.08H185.92V123.145C185.906 125.197 187.398 126.206 189.33 126.149C190.061 126.128 190.565 125.986 190.842 125.893L190.409 123.884C190.267 123.919 189.976 123.983 189.656 123.983C189.01 123.983 188.491 123.756 188.491 122.719V117.08H190.643V115.091ZM203.28 115.091H201.015V114.232C201.015 113.379 201.37 112.903 202.328 112.903C202.733 112.903 203.074 112.996 203.287 113.06L203.806 111.071C203.472 110.957 202.74 110.773 201.853 110.773C199.956 110.773 198.444 111.859 198.444 114.061V115.091H196.831V117.08H198.444V126H201.015V117.08H203.28V115.091ZM205.294 126H207.865V119.587C207.865 118.202 208.909 117.222 210.322 117.222C210.755 117.222 211.295 117.3 211.515 117.371V115.006C211.281 114.963 210.876 114.935 210.592 114.935C209.342 114.935 208.298 115.645 207.9 116.909H207.787V115.091H205.294V126ZM217.604 126.213C220.146 126.213 221.893 124.97 222.348 123.074L219.947 122.804C219.599 123.727 218.747 124.21 217.639 124.21C215.977 124.21 214.876 123.116 214.855 121.249H222.455V120.46C222.455 116.632 220.153 114.949 217.469 114.949C214.344 114.949 212.305 117.243 212.305 120.609C212.305 124.033 214.315 126.213 217.604 126.213ZM214.862 119.516C214.94 118.124 215.97 116.952 217.504 116.952C218.982 116.952 219.976 118.031 219.99 119.516H214.862ZM229.459 126.213C232.002 126.213 233.749 124.97 234.203 123.074L231.803 122.804C231.455 123.727 230.603 124.21 229.495 124.21C227.833 124.21 226.732 123.116 226.711 121.249H234.31V120.46C234.31 116.632 232.009 114.949 229.324 114.949C226.199 114.949 224.161 117.243 224.161 120.609C224.161 124.033 226.171 126.213 229.459 126.213ZM226.718 119.516C226.796 118.124 227.826 116.952 229.36 116.952C230.837 116.952 231.831 118.031 231.846 119.516H226.718ZM250.068 117.974C249.713 116.128 248.236 114.949 245.679 114.949C243.051 114.949 241.261 116.241 241.268 118.259C241.261 119.849 242.241 120.901 244.337 121.334L246.197 121.724C247.199 121.945 247.668 122.349 247.668 122.967C247.668 123.713 246.858 124.274 245.636 124.274C244.457 124.274 243.69 123.763 243.47 122.783L240.963 123.024C241.283 125.027 242.966 126.213 245.643 126.213C248.371 126.213 250.295 124.8 250.303 122.733C250.295 121.178 249.294 120.226 247.234 119.778L245.374 119.381C244.266 119.132 243.825 118.749 243.832 118.116C243.825 117.378 244.642 116.866 245.714 116.866C246.901 116.866 247.526 117.513 247.724 118.23L250.068 117.974ZM254.994 119.608C254.994 118.031 255.974 117.122 257.352 117.122C258.701 117.122 259.496 117.982 259.496 119.452V126H262.067V119.054C262.067 116.419 260.576 114.949 258.31 114.949C256.634 114.949 255.569 115.709 255.065 116.945H254.937V111.455H252.423V126H254.994V119.608ZM264.688 126H267.259V115.091H264.688V126ZM265.981 113.543C266.798 113.543 267.465 112.918 267.465 112.151C267.465 111.376 266.798 110.751 265.981 110.751C265.157 110.751 264.489 111.376 264.489 112.151C264.489 112.918 265.157 113.543 265.981 113.543ZM269.903 130.091H272.474V124.281H272.581C272.985 125.077 273.831 126.192 275.706 126.192C278.277 126.192 280.201 124.153 280.201 120.56C280.201 116.923 278.22 114.949 275.699 114.949C273.774 114.949 272.971 116.107 272.581 116.895H272.431V115.091H269.903V130.091ZM272.424 120.545C272.424 118.429 273.333 117.058 274.988 117.058C276.7 117.058 277.581 118.514 277.581 120.545C277.581 122.591 276.686 124.082 274.988 124.082C273.348 124.082 272.424 122.662 272.424 120.545ZM282.403 130.091H284.974V124.281H285.081C285.485 125.077 286.331 126.192 288.206 126.192C290.777 126.192 292.701 124.153 292.701 120.56C292.701 116.923 290.72 114.949 288.199 114.949C286.274 114.949 285.471 116.107 285.081 116.895H284.931V115.091H282.403V130.091ZM284.924 120.545C284.924 118.429 285.833 117.058 287.488 117.058C289.2 117.058 290.081 118.514 290.081 120.545C290.081 122.591 289.186 124.082 287.488 124.082C285.848 124.082 284.924 122.662 284.924 120.545ZM294.903 126H297.474V115.091H294.903V126ZM296.196 113.543C297.012 113.543 297.68 112.918 297.68 112.151C297.68 111.376 297.012 110.751 296.196 110.751C295.372 110.751 294.704 111.376 294.704 112.151C294.704 112.918 295.372 113.543 296.196 113.543ZM302.689 119.608C302.689 118.031 303.641 117.122 304.997 117.122C306.325 117.122 307.121 117.996 307.121 119.452V126H309.692V119.054C309.699 116.44 308.207 114.949 305.956 114.949C304.322 114.949 303.2 115.73 302.703 116.945H302.575V115.091H300.118V126H302.689V119.608ZM317.05 130.318C319.997 130.318 322.17 128.969 322.17 126.178V115.091H319.635V116.895H319.493C319.102 116.107 318.286 114.949 316.361 114.949C313.839 114.949 311.858 116.923 311.858 120.51C311.858 124.068 313.839 125.844 316.354 125.844C318.222 125.844 319.095 124.842 319.493 124.04H319.621V126.107C319.621 127.712 318.555 128.372 317.092 128.372C315.544 128.372 314.862 127.641 314.55 127.001L312.234 127.562C312.703 129.089 314.273 130.318 317.05 130.318ZM317.071 123.827C315.374 123.827 314.479 122.506 314.479 120.496C314.479 118.514 315.359 117.058 317.071 117.058C318.726 117.058 319.635 118.429 319.635 120.496C319.635 122.577 318.712 123.827 317.071 123.827ZM327.952 111.455H325.203L325.43 121.724H327.717L327.952 111.455ZM326.574 126.156C327.412 126.156 328.129 125.46 328.136 124.594C328.129 123.741 327.412 123.045 326.574 123.045C325.707 123.045 325.004 123.741 325.011 124.594C325.004 125.46 325.707 126.156 326.574 126.156Z"
          fill="white"/>
    <g filter="url(#filter0_d_22:2585)">
        <circle cx="37.0266" cy="37.0266" r="14.0266" fill="white"/>
    </g>
    <path d="M39.0191 35.0111L31.5049 42.5254" stroke="#57E400" stroke-width="1.0019" stroke-linecap="round"
          stroke-linejoin="round"/>
    <path d="M33.0079 41.0226C30.0022 36.0131 34.0098 31.0036 42.5259 31.5046C43.0269 40.0207 38.0174 44.0283 33.0079 41.0226Z"
          stroke="#57E400" stroke-width="1.0019" stroke-linecap="round" stroke-linejoin="round"/>
    <path d="M165.057 152H166.114V148.812H168.023C170.055 148.812 170.972 147.577 170.972 146.034C170.972 144.491 170.055 143.273 168.006 143.273H165.057V152ZM166.114 147.875V144.21H167.972C169.391 144.21 169.932 144.986 169.932 146.034C169.932 147.082 169.391 147.875 167.989 147.875H166.114ZM176.663 149.324C176.663 150.551 175.725 151.114 174.975 151.114C174.14 151.114 173.543 150.5 173.543 149.545V145.455H172.538V149.614C172.538 151.284 173.424 152.085 174.651 152.085C175.64 152.085 176.288 151.557 176.594 150.892H176.663V152H177.668V145.455H176.663V149.324ZM179.51 152H180.516V147.858C180.516 146.972 181.215 146.324 182.169 146.324C182.438 146.324 182.715 146.375 182.783 146.392V145.369C182.668 145.361 182.404 145.352 182.255 145.352C181.471 145.352 180.789 145.795 180.55 146.443H180.482V145.455H179.51V152ZM186.435 152.136C187.884 152.136 188.838 151.25 189.009 150.091H188.003C187.816 150.807 187.219 151.233 186.435 151.233C185.242 151.233 184.475 150.244 184.475 148.727C184.475 147.244 185.259 146.273 186.435 146.273C187.321 146.273 187.85 146.818 188.003 147.415H189.009C188.838 146.188 187.799 145.369 186.418 145.369C184.645 145.369 183.469 146.767 183.469 148.761C183.469 150.722 184.594 152.136 186.435 152.136ZM191.485 148.062C191.485 146.92 192.213 146.273 193.206 146.273C194.152 146.273 194.723 146.869 194.723 147.909V152H195.729V147.841C195.729 146.158 194.834 145.369 193.496 145.369C192.465 145.369 191.877 145.8 191.57 146.477H191.485V143.273H190.479V152H191.485V148.062ZM199.495 152.153C200.637 152.153 201.234 151.54 201.438 151.114H201.489V152H202.495V147.688C202.495 145.608 200.91 145.369 200.075 145.369C199.086 145.369 197.961 145.71 197.45 146.903L198.404 147.244C198.626 146.767 199.15 146.256 200.109 146.256C201.033 146.256 201.489 146.746 201.489 147.585V147.619C201.489 148.105 200.995 148.062 199.802 148.216C198.587 148.374 197.262 148.642 197.262 150.142C197.262 151.42 198.251 152.153 199.495 152.153ZM199.648 151.25C198.847 151.25 198.268 150.892 198.268 150.193C198.268 149.426 198.967 149.188 199.751 149.085C200.177 149.034 201.319 148.915 201.489 148.71V149.631C201.489 150.449 200.842 151.25 199.648 151.25ZM208.967 146.92C208.652 145.991 207.944 145.369 206.649 145.369C205.268 145.369 204.245 146.153 204.245 147.261C204.245 148.165 204.782 148.77 205.984 149.051L207.075 149.307C207.735 149.46 208.047 149.776 208.047 150.227C208.047 150.79 207.45 151.25 206.512 151.25C205.69 151.25 205.174 150.896 204.995 150.193L204.041 150.432C204.275 151.544 205.191 152.136 206.529 152.136C208.051 152.136 209.086 151.305 209.086 150.176C209.086 149.264 208.515 148.689 207.348 148.403L206.376 148.165C205.6 147.973 205.251 147.713 205.251 147.21C205.251 146.648 205.848 146.239 206.649 146.239C207.527 146.239 207.889 146.724 208.064 147.176L208.967 146.92ZM213.344 152.136C214.674 152.136 215.646 151.472 215.952 150.483L214.981 150.21C214.725 150.892 214.133 151.233 213.344 151.233C212.164 151.233 211.35 150.47 211.303 149.068H216.055V148.642C216.055 146.205 214.606 145.369 213.242 145.369C211.469 145.369 210.293 146.767 210.293 148.778C210.293 150.79 211.452 152.136 213.344 152.136ZM211.303 148.199C211.371 147.18 212.092 146.273 213.242 146.273C214.333 146.273 215.032 147.091 215.032 148.199H211.303ZM225.596 146.92C225.281 145.991 224.573 145.369 223.278 145.369C221.897 145.369 220.874 146.153 220.874 147.261C220.874 148.165 221.411 148.77 222.613 149.051L223.704 149.307C224.364 149.46 224.675 149.776 224.675 150.227C224.675 150.79 224.079 151.25 223.141 151.25C222.319 151.25 221.803 150.896 221.624 150.193L220.67 150.432C220.904 151.544 221.82 152.136 223.158 152.136C224.68 152.136 225.715 151.305 225.715 150.176C225.715 149.264 225.144 148.689 223.977 148.403L223.005 148.165C222.229 147.973 221.88 147.713 221.88 147.21C221.88 146.648 222.477 146.239 223.278 146.239C224.156 146.239 224.518 146.724 224.692 147.176L225.596 146.92ZM231.354 149.324C231.354 150.551 230.417 151.114 229.667 151.114C228.831 151.114 228.235 150.5 228.235 149.545V145.455H227.229V149.614C227.229 151.284 228.115 152.085 229.343 152.085C230.331 152.085 230.979 151.557 231.286 150.892H231.354V152H232.36V145.455H231.354V149.324ZM238.838 146.92C238.523 145.991 237.815 145.369 236.52 145.369C235.139 145.369 234.116 146.153 234.116 147.261C234.116 148.165 234.653 148.77 235.855 149.051L236.946 149.307C237.607 149.46 237.918 149.776 237.918 150.227C237.918 150.79 237.321 151.25 236.384 151.25C235.561 151.25 235.045 150.896 234.866 150.193L233.912 150.432C234.146 151.544 235.062 152.136 236.401 152.136C237.922 152.136 238.957 151.305 238.957 150.176C238.957 149.264 238.386 148.689 237.219 148.403L236.247 148.165C235.472 147.973 235.122 147.713 235.122 147.21C235.122 146.648 235.719 146.239 236.52 146.239C237.398 146.239 237.76 146.724 237.935 147.176L238.838 146.92ZM243.318 145.455H241.92V143.886H240.914V145.455H239.926V146.307H240.914V150.398C240.914 151.54 241.835 152.085 242.687 152.085C243.062 152.085 243.301 152.017 243.437 151.966L243.233 151.062C243.147 151.08 243.011 151.114 242.789 151.114C242.346 151.114 241.92 150.977 241.92 150.125V146.307H243.318V145.455ZM246.757 152.153C247.899 152.153 248.495 151.54 248.7 151.114H248.751V152H249.757V147.688C249.757 145.608 248.172 145.369 247.336 145.369C246.348 145.369 245.223 145.71 244.711 146.903L245.666 147.244C245.887 146.767 246.412 146.256 247.37 146.256C248.295 146.256 248.751 146.746 248.751 147.585V147.619C248.751 148.105 248.257 148.062 247.064 148.216C245.849 148.374 244.524 148.642 244.524 150.142C244.524 151.42 245.512 152.153 246.757 152.153ZM246.91 151.25C246.109 151.25 245.529 150.892 245.529 150.193C245.529 149.426 246.228 149.188 247.012 149.085C247.439 149.034 248.581 148.915 248.751 148.71V149.631C248.751 150.449 248.103 151.25 246.91 151.25ZM251.592 152H252.598V145.455H251.592V152ZM252.104 144.364C252.496 144.364 252.82 144.057 252.82 143.682C252.82 143.307 252.496 143 252.104 143C251.712 143 251.388 143.307 251.388 143.682C251.388 144.057 251.712 144.364 252.104 144.364ZM255.446 148.062C255.446 146.92 256.153 146.273 257.116 146.273C258.049 146.273 258.616 146.882 258.616 147.909V152H259.622V147.841C259.622 146.17 258.731 145.369 257.406 145.369C256.417 145.369 255.804 145.812 255.497 146.477H255.412V145.455H254.44V152H255.446V148.062ZM263.386 152.153C264.528 152.153 265.124 151.54 265.329 151.114H265.38V152H266.386V147.688C266.386 145.608 264.8 145.369 263.965 145.369C262.977 145.369 261.852 145.71 261.34 146.903L262.295 147.244C262.516 146.767 263.04 146.256 263.999 146.256C264.924 146.256 265.38 146.746 265.38 147.585V147.619C265.38 148.105 264.886 148.062 263.692 148.216C262.478 148.374 261.153 148.642 261.153 150.142C261.153 151.42 262.141 152.153 263.386 152.153ZM263.539 151.25C262.738 151.25 262.158 150.892 262.158 150.193C262.158 149.426 262.857 149.188 263.641 149.085C264.067 149.034 265.21 148.915 265.38 148.71V149.631C265.38 150.449 264.732 151.25 263.539 151.25ZM268.358 152H269.329V150.994H269.449C269.67 151.352 270.096 152.136 271.358 152.136C272.994 152.136 274.136 150.824 274.136 148.744C274.136 146.682 272.994 145.369 271.341 145.369C270.062 145.369 269.67 146.153 269.449 146.494H269.363V143.273H268.358V152ZM269.346 148.727C269.346 147.261 269.994 146.273 271.221 146.273C272.5 146.273 273.13 147.347 273.13 148.727C273.13 150.125 272.483 151.233 271.221 151.233C270.011 151.233 269.346 150.21 269.346 148.727ZM276.68 143.273H275.674V152H276.68V143.273ZM279.17 154.455C280.077 154.455 280.717 153.973 281.096 152.955L283.883 145.472L282.783 145.455L280.977 150.67H280.908L279.102 145.455H278.011L280.431 152.034L280.244 152.545C279.877 153.543 279.425 153.636 278.692 153.449L278.437 154.335C278.539 154.386 278.829 154.455 279.17 154.455Z"
          fill="white"/>
    <path d="M0.884943 270H3.03764V266.699H4.8473C7.18892 266.699 8.55114 265.302 8.55114 263.268C8.55114 261.245 7.21378 259.818 4.90199 259.818H0.884943V270ZM3.03764 264.974V261.578H4.48935C5.73224 261.578 6.33381 262.254 6.33381 263.268C6.33381 264.278 5.73224 264.974 4.49929 264.974H3.03764ZM11.8821 270.144C13.0107 270.144 13.7415 269.652 14.1143 268.941H14.174V270H16.1825V264.849C16.1825 263.03 14.6413 262.264 12.9411 262.264C11.1115 262.264 9.90838 263.139 9.61506 264.531L11.5739 264.69C11.718 264.183 12.1705 263.81 12.9311 263.81C13.652 263.81 14.0646 264.173 14.0646 264.8V264.83C14.0646 265.322 13.5426 265.386 12.2152 265.516C10.7038 265.655 9.34659 266.162 9.34659 267.867C9.34659 269.379 10.4254 270.144 11.8821 270.144ZM12.4886 268.683C11.8374 268.683 11.37 268.379 11.37 267.798C11.37 267.201 11.8622 266.908 12.608 266.803C13.0703 266.739 13.826 266.629 14.0795 266.46V267.271C14.0795 268.071 13.4183 268.683 12.4886 268.683ZM18.8597 272.864C20.4357 272.864 21.271 272.058 21.7035 270.825L24.6715 262.374L22.4293 262.364L20.8335 267.972H20.7539L19.1729 262.364H16.9457L19.685 270.219L19.5607 270.542C19.2823 271.258 18.7504 271.293 18.0046 271.064L17.5273 272.645C17.8306 272.774 18.3228 272.864 18.8597 272.864ZM28.8775 270.149C29.7674 270.149 30.7319 269.901 31.4826 269.314L32.0991 270H34.3065L32.7752 268.245C33.342 267.494 33.6999 266.415 33.6999 265.033H31.945C31.945 265.7 31.7809 266.291 31.5124 266.793L29.832 264.864L30.4286 264.437C31.2837 263.82 31.7809 263.045 31.7809 262.085C31.7809 260.783 30.7717 259.684 29.136 259.684C27.4656 259.684 26.3569 260.822 26.3569 262.299C26.3569 263.204 26.7944 263.96 27.3263 264.636C26.2177 265.396 25.4719 266.117 25.4719 267.295C25.4719 268.901 26.7596 270.149 28.8775 270.149ZM30.3391 268.041C29.9116 268.305 29.4442 268.449 28.9819 268.449C28.0969 268.449 27.5252 267.902 27.5252 267.176C27.5252 266.788 27.7887 266.341 28.3505 265.933L28.4102 265.893L30.3391 268.041ZM28.8129 263.656C28.435 263.179 28.1715 262.756 28.1715 262.334C28.1715 261.822 28.5593 261.394 29.1509 261.389C29.7475 261.384 30.0856 261.802 30.0856 262.205C30.0856 262.632 29.8519 262.985 29.3448 263.308L28.8129 263.656ZM44.7828 264.541C44.5939 263.134 43.4604 262.264 41.5314 262.264C39.5776 262.264 38.29 263.169 38.2949 264.641C38.29 265.784 39.0108 266.525 40.5023 266.823L41.8248 267.087C42.4909 267.221 42.7942 267.464 42.8042 267.847C42.7942 268.3 42.302 268.623 41.5613 268.623C40.8056 268.623 40.3034 268.3 40.1742 267.678L38.0911 267.788C38.29 269.249 39.5328 270.149 41.5563 270.149C43.535 270.149 44.9519 269.14 44.9569 267.634C44.9519 266.53 44.231 265.869 42.7495 265.565L41.3674 265.287C40.6564 265.133 40.3929 264.889 40.3979 264.521C40.3929 264.064 40.91 263.766 41.5662 263.766C42.302 263.766 42.7395 264.168 42.8439 264.661L44.7828 264.541ZM48.4084 265.585C48.4134 264.601 49.0149 264.024 49.88 264.024C50.7401 264.024 51.2472 264.576 51.2422 265.516V270H53.3601V265.138C53.3651 263.348 52.3111 262.264 50.7202 262.264C49.5618 262.264 48.7862 262.811 48.4382 263.711H48.3487V259.818H46.2905V270H48.4084V265.585ZM55.0268 270H57.1447V262.364H55.0268V270ZM56.0907 261.379C56.7221 261.379 57.2392 260.897 57.2392 260.305C57.2392 259.719 56.7221 259.237 56.0907 259.237C55.4643 259.237 54.9473 259.719 54.9473 260.305C54.9473 260.897 55.4643 261.379 56.0907 261.379ZM58.8413 272.864H60.9592V268.777H61.0238C61.3171 269.413 61.9585 270.124 63.1914 270.124C64.9315 270.124 66.2887 268.747 66.2887 266.192C66.2887 263.567 64.8718 262.264 63.1964 262.264C61.9187 262.264 61.3072 263.025 61.0238 263.646H60.9293V262.364H58.8413V272.864ZM60.9144 266.182C60.9144 264.82 61.4911 263.95 62.5202 263.95C63.5692 263.95 64.1261 264.859 64.1261 266.182C64.1261 267.514 63.5593 268.439 62.5202 268.439C61.5011 268.439 60.9144 267.544 60.9144 266.182ZM73.1184 270.144C74.247 270.144 74.9778 269.652 75.3507 268.941H75.4103V270H77.4189V264.849C77.4189 263.03 75.8777 262.264 74.1774 262.264C72.3478 262.264 71.1447 263.139 70.8514 264.531L72.8102 264.69C72.9544 264.183 73.4068 263.81 74.1674 263.81C74.8883 263.81 75.301 264.173 75.301 264.8V264.83C75.301 265.322 74.7789 265.386 73.4515 265.516C71.9402 265.655 70.5829 266.162 70.5829 267.867C70.5829 269.379 71.6618 270.144 73.1184 270.144ZM73.725 268.683C73.0737 268.683 72.6064 268.379 72.6064 267.798C72.6064 267.201 73.0985 266.908 73.8443 266.803C74.3066 266.739 75.0623 266.629 75.3159 266.46V267.271C75.3159 268.071 74.6547 268.683 73.725 268.683ZM81.8759 270.124C83.1088 270.124 83.7502 269.413 84.0435 268.777H84.133V270H86.2211V259.818H84.1081V263.646H84.0435C83.7601 263.025 83.1486 262.264 81.8709 262.264C80.1955 262.264 78.7786 263.567 78.7786 266.192C78.7786 268.747 80.1358 270.124 81.8759 270.124ZM82.5471 268.439C81.508 268.439 80.9412 267.514 80.9412 266.182C80.9412 264.859 81.498 263.95 82.5471 263.95C83.5762 263.95 84.1529 264.82 84.1529 266.182C84.1529 267.544 83.5662 268.439 82.5471 268.439ZM95.0817 262.364H92.8395L91.2585 267.827H91.179L89.593 262.364H87.3558L90.0256 270H92.4119L95.0817 262.364ZM96.9249 270.129C97.5613 270.129 98.1131 269.597 98.1181 268.936C98.1131 268.285 97.5613 267.753 96.9249 267.753C96.2686 267.753 95.7267 268.285 95.7317 268.936C95.7267 269.597 96.2686 270.129 96.9249 270.129Z"
          fill="#AAAAAA"/>
    <defs>
        <filter id="filter0_d_22:2585" x="20.5338" y="20.5338" width="32.9856" height="32.9855"
                filterUnits="userSpaceOnUse" color-interpolation-filters="sRGB">
            <feFlood flood-opacity="0" result="BackgroundImageFix"/>
            <feColorMatrix in="SourceAlpha" type="matrix" values="0 0 0 0 0 0 0 0 0 0 0 0 0 0 0 0 0 0 127 0"
                           result="hardAlpha"/>
            <feOffset/>
            <feGaussianBlur stdDeviation="1.2331"/>
            <feComposite in2="hardAlpha" operator="out"/>
            <feColorMatrix type="matrix" values="0 0 0 0 0 0 0 0 0 0 0 0 0 0 0 0 0 0 0.1 0"/>
            <feBlend mode="normal" in2="BackgroundImageFix" result="effect1_dropShadow_22:2585"/>
            <feBlend mode="normal" in="SourceGraphic" in2="effect1_dropShadow_22:2585" result="shape"/>
        </filter>
    </defs>
</svg>
