<svg width="104" height="27" viewBox="0 0 104 27" fill="none" xmlns="http://www.w3.org/2000/svg">
<path d="M56.0597 12.96V12.92L55.5397 12.76L55.8797 12.18L58.2197 12.9C58.2197 13.34 58.2397 13.7933 58.2797 14.26C58.333 14.7133 58.3864 15.18 58.4397 15.66C58.5064 16.14 58.5597 16.6333 58.5997 17.14C58.653 17.6333 58.6797 18.1333 58.6797 18.64C58.6797 19.32 58.6197 20.0067 58.4997 20.7C58.3797 21.3933 58.1797 22.0533 57.8997 22.68C57.633 23.3067 57.273 23.8867 56.8197 24.42C56.3797 24.9533 55.8264 25.3933 55.1597 25.74C54.7997 25.98 54.333 26.2 53.7597 26.4C53.1997 26.6133 52.6464 26.7333 52.0997 26.76H51.8597C51.3264 26.76 50.8797 26.7 50.5197 26.58C50.1597 26.4733 49.873 26.3467 49.6597 26.2C49.4464 26.0667 49.293 25.9333 49.1997 25.8C49.1197 25.68 49.0797 25.6067 49.0797 25.58C49.0797 25.5267 49.1064 25.5 49.1597 25.5C49.573 25.8067 50.0197 26.0267 50.4997 26.16C50.9797 26.2933 51.4597 26.36 51.9397 26.36C52.753 26.36 53.5064 26.2 54.1997 25.88C54.8664 25.56 55.4664 25.16 55.9997 24.68C55.4664 25.1467 54.8597 25.5333 54.1797 25.84C53.4864 26.1467 52.7464 26.3 51.9597 26.3C51.493 26.3 51.033 26.2333 50.5797 26.1C50.1397 25.9667 49.7264 25.7467 49.3397 25.44C49.3797 25.44 49.4264 25.4267 49.4797 25.4C49.533 25.3867 49.5597 25.3533 49.5597 25.3L49.3997 25.16C49.3064 25.0667 49.193 24.9467 49.0597 24.8C48.9397 24.6533 48.8264 24.48 48.7197 24.28C48.6264 24.08 48.5797 23.8667 48.5797 23.64C48.5797 23.4133 48.6664 23.3 48.8397 23.3C48.973 23.3 49.1264 23.3867 49.2997 23.56C49.473 23.7333 49.6797 23.92 49.9197 24.12C50.1597 24.3333 50.4464 24.5267 50.7797 24.7C51.1264 24.8733 51.533 24.96 51.9997 24.96C52.6664 24.96 53.2664 24.8267 53.7997 24.56C54.333 24.3067 54.7997 23.9533 55.1997 23.5C54.813 23.9267 54.3597 24.26 53.8397 24.5C53.333 24.74 52.753 24.86 52.0997 24.86C51.6997 24.86 51.3197 24.7933 50.9597 24.66C50.613 24.5267 50.333 24.3467 50.1197 24.12C50.3464 24.1867 50.6264 24.26 50.9597 24.34C51.3064 24.42 51.6797 24.46 52.0797 24.46C52.7997 24.46 53.433 24.2733 53.9797 23.9C54.5397 23.54 55.0197 23.08 55.4197 22.52L55.6997 22.56C56.0064 22.0267 56.2197 21.4533 56.3397 20.84C56.473 20.24 56.5397 19.6067 56.5397 18.94C56.5397 18.4867 56.5197 18.0267 56.4797 17.56C56.4397 17.0933 56.3864 16.62 56.3197 16.14L56.2197 16.28C56.2864 16.7467 56.333 17.2067 56.3597 17.66C56.3997 18.1 56.4197 18.5333 56.4197 18.96C56.4197 19.4933 56.3664 20.02 56.2597 20.54C56.153 21.0733 55.9864 21.56 55.7597 22C55.9864 21.5333 56.1464 21.0333 56.2397 20.5C56.333 19.98 56.3797 19.42 56.3797 18.82C56.313 18.4733 56.2797 18.1267 56.2797 17.78C56.2797 17.4333 56.2664 17.0867 56.2397 16.74L56.1997 16.34C56.1064 16.4733 55.9664 16.66 55.7797 16.9C55.593 17.14 55.373 17.38 55.1197 17.62C54.8664 17.8467 54.5797 18.0467 54.2597 18.22C53.953 18.3933 53.6264 18.48 53.2797 18.48L52.7797 18.54C52.073 18.54 51.4397 18.36 50.8797 18C50.3197 17.64 49.8397 17.1867 49.4397 16.64C49.0397 16.08 48.733 15.4733 48.5197 14.82C48.3064 14.1533 48.1997 13.5133 48.1997 12.9C48.1864 12.8333 48.1797 12.78 48.1797 12.74V12.56C48.1797 11.7467 48.3264 11.0467 48.6197 10.46C48.913 9.86 49.313 9.37333 49.8197 9C50.3397 8.62667 50.9464 8.35333 51.6397 8.18C52.333 7.99333 53.0797 7.9 53.8797 7.9C54.813 7.9 55.7597 8.02667 56.7197 8.28C56.6397 8.30667 56.5997 8.35333 56.5997 8.42C56.5997 8.47333 56.6064 8.52667 56.6197 8.58C56.6464 8.62 56.6597 8.66667 56.6597 8.72V8.76C56.6197 8.82667 56.5264 8.86 56.3797 8.86C56.233 8.86 56.0197 8.84 55.7397 8.8C55.4597 8.76 55.0664 8.70667 54.5597 8.64V8.88C55.013 8.93333 55.3997 9.02 55.7197 9.14C56.0397 9.24667 56.2997 9.36667 56.4997 9.5C56.6997 9.63333 56.8397 9.76 56.9197 9.88C57.013 10 57.0597 10.1 57.0597 10.18C57.0597 10.2333 57.0264 10.2733 56.9597 10.3C56.9064 10.3133 56.8464 10.32 56.7797 10.32C56.633 10.32 56.3664 10.2933 55.9797 10.24C55.6064 10.1867 55.133 10.16 54.5597 10.16C54.013 10.16 53.4997 10.1933 53.0197 10.26C52.5397 10.3267 52.1197 10.4533 51.7597 10.64C51.413 10.8267 51.1397 11.0867 50.9397 11.42C50.7397 11.7533 50.6397 12.1867 50.6397 12.72C50.6397 13.16 50.7064 13.58 50.8397 13.98C50.9864 14.38 51.1597 14.7333 51.3597 15.04C51.573 15.3467 51.8064 15.5933 52.0597 15.78C52.313 15.9533 52.5597 16.04 52.7997 16.04C52.9597 16.04 53.153 15.9267 53.3797 15.7C53.6197 15.4733 53.8664 15.1933 54.1197 14.86C54.3864 14.5267 54.6397 14.1733 54.8797 13.8C55.1197 13.4267 55.3264 13.0933 55.4997 12.8L56.0597 12.96ZM55.3397 16.98C55.2064 17.1133 55.0597 17.26 54.8997 17.42C54.7397 17.5667 54.5597 17.7067 54.3597 17.84C54.173 17.96 53.9597 18.0733 53.7197 18.18C53.4797 18.2733 53.2197 18.3333 52.9397 18.36L53.0797 18.42C53.4797 18.3667 53.8464 18.2533 54.1797 18.08C54.513 17.8933 54.8064 17.68 55.0597 17.44C55.3264 17.2 55.5597 16.9533 55.7597 16.7C55.9597 16.4467 56.133 16.2267 56.2797 16.04L56.2397 15.8C56.1197 15.9733 55.973 16.1667 55.7997 16.38C55.6397 16.5933 55.4864 16.7933 55.3397 16.98ZM56.7997 18.92C56.7997 19.5067 56.7397 20.08 56.6197 20.64C56.4997 21.1733 56.333 21.6733 56.1197 22.14C56.3464 21.66 56.5264 21.1333 56.6597 20.56C56.8064 19.9733 56.8797 19.3733 56.8797 18.76C56.8797 18.4533 56.8664 18.14 56.8397 17.82C56.8264 17.5 56.8064 17.18 56.7797 16.86L56.6797 15.68L56.5797 15.8C56.633 16.32 56.6797 16.84 56.7197 17.36C56.773 17.88 56.7997 18.4 56.7997 18.92ZM58.2797 18.8C58.2797 18.0933 58.2464 17.4067 58.1797 16.74C58.1264 16.0733 58.0597 15.4133 57.9797 14.76C58.033 15.3733 58.093 15.9867 58.1597 16.6C58.2264 17.2 58.2597 17.82 58.2597 18.46C58.2597 18.9 58.233 19.3667 58.1797 19.86C58.1397 20.34 58.0597 20.82 57.9397 21.3C57.8197 21.78 57.653 22.2467 57.4397 22.7C57.2397 23.1267 56.9864 23.5267 56.6797 23.9C57.213 23.2867 57.593 22.5933 57.8197 21.82C58.0597 21.02 58.213 20.2267 58.2797 19.44V18.8ZM64.1397 20.22C64.0064 20.2467 63.8597 20.26 63.6997 20.26H63.1197C62.773 20.26 62.5264 20.3 62.3797 20.38C62.2464 20.46 62.1664 20.5 62.1397 20.5L62.0597 20.14V19.78L61.9597 17.9C61.933 17.54 61.8597 17.1533 61.7397 16.74C61.6197 16.3267 61.5264 15.9067 61.4597 15.48C61.4197 15.2 61.3864 14.9333 61.3597 14.68L61.2797 13.9C61.253 13.6333 61.2197 13.36 61.1797 13.08C61.153 12.8 61.1064 12.5 61.0397 12.18C61.0397 12.1 61.0397 12.02 61.0397 11.94C61.053 11.86 61.0597 11.78 61.0597 11.7C61.0597 11.2867 61.0264 10.88 60.9597 10.48C60.893 10.08 60.7997 9.68667 60.6797 9.3C60.773 9.26 60.8597 9.22667 60.9397 9.2C61.0197 9.16 61.093 9.14 61.1597 9.14C61.2264 9.14 61.2997 9.22 61.3797 9.38C61.4597 9.52667 61.5464 9.84 61.6397 10.32C61.6664 10.32 61.7064 10.3133 61.7597 10.3C61.813 10.2733 61.853 10.26 61.8797 10.26C61.8664 10.0333 61.833 9.79333 61.7797 9.54C61.7264 9.27333 61.673 9.02 61.6197 8.78C61.5664 8.54 61.513 8.32667 61.4597 8.14C61.4197 7.94 61.3997 7.78 61.3997 7.66C61.3997 7.63333 61.3997 7.6 61.3997 7.56C61.413 7.52 61.4464 7.5 61.4997 7.5C61.5664 7.5 61.653 7.57333 61.7597 7.72C61.8664 7.86667 61.9797 8.05333 62.0997 8.28C62.2197 8.50667 62.333 8.75333 62.4397 9.02C62.5597 9.27333 62.6664 9.51333 62.7597 9.74C63.1197 9.06 63.5264 8.54667 63.9797 8.2C64.4464 7.84 65.053 7.66 65.7997 7.66C66.3464 7.66 66.793 7.72667 67.1397 7.86C67.4864 7.98 67.753 8.12 67.9397 8.28C68.1397 8.42667 68.273 8.56667 68.3397 8.7L68.4597 8.9C68.4597 8.98 68.4197 9.03333 68.3397 9.06C67.993 8.72667 67.5997 8.47333 67.1597 8.3C66.7197 8.12667 66.2664 8.04 65.7997 8.04C65.3464 8.04 65.0064 8.1 64.7797 8.22C64.5664 8.32667 64.3397 8.46 64.0997 8.62C64.353 8.46 64.5864 8.33333 64.7997 8.24C65.0264 8.14667 65.353 8.1 65.7797 8.1C66.2464 8.1 66.693 8.19333 67.1197 8.38C67.5464 8.55333 67.913 8.78 68.2197 9.06C68.153 9.08667 68.093 9.12 68.0397 9.16C67.9997 9.18667 67.9797 9.23333 67.9797 9.3C68.0464 9.3 68.1197 9.34667 68.1997 9.44C68.2797 9.52 68.353 9.62 68.4197 9.74C68.4864 9.86 68.5397 9.98667 68.5797 10.12C68.633 10.24 68.6597 10.34 68.6597 10.42C68.6597 10.6467 68.573 10.76 68.3997 10.76C68.2664 10.76 68.1064 10.7133 67.9197 10.62C67.8797 10.6067 67.793 10.5333 67.6597 10.4C67.5397 10.2667 67.3864 10.1333 67.1997 10C67.013 9.85333 66.7997 9.72 66.5597 9.6C66.3197 9.48 66.053 9.42 65.7597 9.42C65.5197 9.42 65.3064 9.47333 65.1197 9.58C64.9464 9.67333 64.7864 9.80667 64.6397 9.98C64.493 10.14 64.3597 10.3267 64.2397 10.54L63.9797 11.02C64.1797 10.66 64.3997 10.3333 64.6397 10.04C64.9064 9.69333 65.2397 9.52 65.6397 9.52C65.9864 9.52 66.3064 9.6 66.5997 9.76C66.893 9.90667 67.133 10.0933 67.3197 10.32C67.093 10.2267 66.8264 10.1333 66.5197 10.04C66.213 9.94667 65.9197 9.9 65.6397 9.9C65.493 9.9 65.3664 9.93333 65.2597 10C65.153 10.0667 65.0597 10.1533 64.9797 10.26C64.913 10.3533 64.8464 10.46 64.7797 10.58C64.7264 10.7 64.6664 10.8133 64.5997 10.92L64.3397 10.96C64.113 11.3467 63.9264 11.8 63.7797 12.32C63.6464 12.8267 63.5797 13.36 63.5797 13.92C63.5797 14.2533 63.593 14.5533 63.6197 14.82C63.6597 15.0867 63.713 15.36 63.7797 15.64L64.0197 16.26L63.9797 15.68C63.953 15.2267 63.9264 14.8267 63.8997 14.48C63.873 14.12 63.8597 13.7267 63.8597 13.3C63.8864 12.9133 63.9397 12.5467 64.0197 12.2C64.0864 11.9067 64.1864 11.6333 64.3197 11.38C64.1597 11.7 64.053 12.0667 63.9997 12.48C63.933 12.9333 63.8997 13.4133 63.8997 13.92C63.8997 14.32 63.9197 14.7 63.9597 15.06C63.9997 15.42 64.0464 15.78 64.0997 16.14C64.1664 16.5 64.233 16.8733 64.2997 17.26C64.3664 17.6333 64.4197 18.0467 64.4597 18.5L64.5197 18.88L64.6397 20.02L64.1397 20.22ZM64.3797 11.28L64.3197 11.38L64.3797 11.28ZM76.8073 20.36C76.3007 20.5333 75.914 20.6267 75.6473 20.64C75.3807 20.6667 75.1473 20.6867 74.9473 20.7C74.2007 20.7 73.5273 20.56 72.9273 20.28C72.3273 20 71.814 19.62 71.3873 19.14C70.9607 18.66 70.6273 18.1 70.3873 17.46C70.1607 16.8067 70.0473 16.1133 70.0473 15.38C70.0473 14.9533 70.0873 14.5133 70.1673 14.06C70.2473 13.5933 70.3673 13.14 70.5273 12.7C70.6873 12.2467 70.894 11.8267 71.1473 11.44C71.3873 11.0533 71.674 10.7067 72.0073 10.4C71.6607 10.68 71.3673 11.0133 71.1273 11.4C70.874 11.7867 70.6607 12.2067 70.4873 12.66C70.314 13.1 70.1873 13.56 70.1073 14.04C70.0273 14.5067 69.9873 14.96 69.9873 15.4C69.9873 15.96 70.074 16.56 70.2473 17.2C70.434 17.8267 70.7273 18.4133 71.1273 18.96C71.5273 19.4933 72.0407 19.94 72.6673 20.3C73.3073 20.66 74.0807 20.84 74.9873 20.84C75.414 20.84 75.8607 20.78 76.3273 20.66C75.8207 20.9933 75.254 21.16 74.6273 21.16C74.1207 21.16 73.6407 21.08 73.1873 20.92C72.7473 20.7733 72.334 20.56 71.9473 20.28C71.574 20.0133 71.234 19.6933 70.9273 19.32C70.6207 18.9467 70.3607 18.5467 70.1473 18.12L70.3273 17.96C70.1007 17.5067 69.934 17.0533 69.8273 16.6C69.734 16.1467 69.6873 15.6867 69.6873 15.22C69.6873 14.54 69.7807 13.8867 69.9673 13.26C70.1673 12.6333 70.4273 12.04 70.7473 11.48L71.2273 10.82C71.3073 10.6733 71.4207 10.5267 71.5673 10.38C71.7273 10.2333 71.9007 10.0933 72.0873 9.96C72.274 9.81333 72.4673 9.68667 72.6673 9.58C72.8807 9.46 73.0807 9.35333 73.2673 9.26C73.7473 9.02 74.2273 8.80667 74.7073 8.62C75.1873 8.42 75.7473 8.27333 76.3873 8.18L76.3073 8.12C75.0807 8.24 74.0407 8.54 73.1873 9.02C72.334 9.48667 71.6407 10.06 71.1073 10.74C70.574 11.42 70.1873 12.1667 69.9473 12.98C69.7073 13.78 69.5873 14.5667 69.5873 15.34C69.5873 15.7533 69.6207 16.1733 69.6873 16.6C69.7673 17.0133 69.8807 17.4267 70.0273 17.84C69.694 17.04 69.5273 16.1933 69.5273 15.3C69.5273 14.42 69.674 13.5467 69.9673 12.68C70.2607 11.8133 70.7207 11.0133 71.3473 10.28C72.1473 9.54667 73.0207 8.98667 73.9673 8.6C74.914 8.2 75.8273 8 76.7073 8C76.9873 8 77.274 8.04667 77.5673 8.14C77.8607 8.23333 78.1273 8.38 78.3673 8.58C78.6073 8.76667 78.8007 9.01333 78.9473 9.32C79.1073 9.62667 79.1873 10 79.1873 10.44C79.1873 10.8 79.1007 11.24 78.9273 11.76C78.754 12.28 78.494 12.7867 78.1473 13.28C77.814 13.76 77.394 14.1733 76.8873 14.52C76.3807 14.8533 75.794 15.02 75.1273 15.02H74.4673C73.974 14.9133 73.5207 14.7933 73.1073 14.66C72.7073 14.5133 72.3273 14.4 71.9673 14.32C71.914 14.5333 71.8807 14.74 71.8673 14.94C71.8673 15.1267 71.8673 15.3133 71.8673 15.5C71.8673 15.8867 71.9073 16.2667 71.9873 16.64C72.0807 17 72.2207 17.3333 72.4073 17.64C72.594 17.9467 72.8273 18.2067 73.1073 18.42C73.4007 18.62 73.754 18.7467 74.1673 18.8C74.4207 18.8533 74.6407 18.8867 74.8273 18.9C75.014 18.9 75.1673 18.9067 75.2873 18.92C75.4207 18.92 75.514 18.94 75.5673 18.98C75.634 19.0067 75.6673 19.0667 75.6673 19.16C75.534 19.2 75.394 19.2267 75.2473 19.24C75.114 19.2533 74.974 19.26 74.8273 19.26C74.3607 19.26 73.9407 19.1867 73.5673 19.04C73.194 18.88 72.874 18.7 72.6073 18.5C72.914 18.8067 73.2807 19.0267 73.7073 19.16C74.134 19.28 74.554 19.34 74.9673 19.34C75.194 19.34 75.4273 19.32 75.6673 19.28C75.6407 19.36 75.6273 19.4067 75.6273 19.42C75.6273 19.5 75.6607 19.5533 75.7273 19.58C75.7807 19.5667 75.874 19.5333 76.0073 19.48C76.1407 19.4133 76.274 19.3533 76.4073 19.3C76.554 19.2333 76.694 19.18 76.8273 19.14C76.9607 19.0867 77.054 19.06 77.1073 19.06C77.174 19.06 77.234 19.0733 77.2873 19.1C77.3407 19.1133 77.3673 19.1867 77.3673 19.32C77.3673 19.4533 77.3207 19.6133 77.2273 19.8C77.134 19.9867 76.994 20.1733 76.8073 20.36ZM74.0473 12.44L74.4873 12.52C74.634 12.5467 74.7673 12.56 74.8873 12.56C75.0207 12.56 75.174 12.52 75.3473 12.44C75.534 12.3467 75.714 12.22 75.8873 12.06C76.074 11.9 76.234 11.7 76.3673 11.46C76.514 11.22 76.6207 10.9467 76.6873 10.64L76.7273 10.52C76.5407 10.52 76.2607 10.5667 75.8873 10.66C75.514 10.7533 75.1273 10.88 74.7273 11.04C74.3273 11.1867 73.954 11.3667 73.6073 11.58C73.2607 11.78 73.0207 12 72.8873 12.24C73.0873 12.28 73.2807 12.32 73.4673 12.36C73.6673 12.3867 73.8607 12.4133 74.0473 12.44ZM73.1273 13.92C73.154 13.8933 73.1673 13.8533 73.1673 13.8C73.1807 13.7467 73.1873 13.7067 73.1873 13.68L72.2473 13.34L72.1473 13.62L73.1273 13.92ZM72.5673 18.46C72.474 18.3533 72.3807 18.2467 72.2873 18.14C72.2073 18.0467 72.1407 17.9533 72.0873 17.86C72.2073 18.0867 72.3673 18.2867 72.5673 18.46ZM88.2722 20.36C87.7655 20.5333 87.3789 20.6267 87.1122 20.64C86.8455 20.6667 86.6122 20.6867 86.4122 20.7C85.6655 20.7 84.9922 20.56 84.3922 20.28C83.7922 20 83.2789 19.62 82.8522 19.14C82.4255 18.66 82.0922 18.1 81.8522 17.46C81.6255 16.8067 81.5122 16.1133 81.5122 15.38C81.5122 14.9533 81.5522 14.5133 81.6322 14.06C81.7122 13.5933 81.8322 13.14 81.9922 12.7C82.1522 12.2467 82.3589 11.8267 82.6122 11.44C82.8522 11.0533 83.1389 10.7067 83.4722 10.4C83.1255 10.68 82.8322 11.0133 82.5922 11.4C82.3389 11.7867 82.1255 12.2067 81.9522 12.66C81.7789 13.1 81.6522 13.56 81.5722 14.04C81.4922 14.5067 81.4522 14.96 81.4522 15.4C81.4522 15.96 81.5389 16.56 81.7122 17.2C81.8989 17.8267 82.1922 18.4133 82.5922 18.96C82.9922 19.4933 83.5055 19.94 84.1322 20.3C84.7722 20.66 85.5455 20.84 86.4522 20.84C86.8789 20.84 87.3255 20.78 87.7922 20.66C87.2855 20.9933 86.7189 21.16 86.0922 21.16C85.5855 21.16 85.1055 21.08 84.6522 20.92C84.2122 20.7733 83.7989 20.56 83.4122 20.28C83.0389 20.0133 82.6989 19.6933 82.3922 19.32C82.0855 18.9467 81.8255 18.5467 81.6122 18.12L81.7922 17.96C81.5655 17.5067 81.3989 17.0533 81.2922 16.6C81.1989 16.1467 81.1522 15.6867 81.1522 15.22C81.1522 14.54 81.2455 13.8867 81.4322 13.26C81.6322 12.6333 81.8922 12.04 82.2122 11.48L82.6922 10.82C82.7722 10.6733 82.8855 10.5267 83.0322 10.38C83.1922 10.2333 83.3655 10.0933 83.5522 9.96C83.7389 9.81333 83.9322 9.68667 84.1322 9.58C84.3455 9.46 84.5455 9.35333 84.7322 9.26C85.2122 9.02 85.6922 8.80667 86.1722 8.62C86.6522 8.42 87.2122 8.27333 87.8522 8.18L87.7722 8.12C86.5455 8.24 85.5055 8.54 84.6522 9.02C83.7989 9.48667 83.1055 10.06 82.5722 10.74C82.0389 11.42 81.6522 12.1667 81.4122 12.98C81.1722 13.78 81.0522 14.5667 81.0522 15.34C81.0522 15.7533 81.0855 16.1733 81.1522 16.6C81.2322 17.0133 81.3455 17.4267 81.4922 17.84C81.1589 17.04 80.9922 16.1933 80.9922 15.3C80.9922 14.42 81.1389 13.5467 81.4322 12.68C81.7255 11.8133 82.1855 11.0133 82.8122 10.28C83.6122 9.54667 84.4855 8.98667 85.4322 8.6C86.3789 8.2 87.2922 8 88.1722 8C88.4522 8 88.7389 8.04667 89.0322 8.14C89.3255 8.23333 89.5922 8.38 89.8322 8.58C90.0722 8.76667 90.2655 9.01333 90.4122 9.32C90.5722 9.62667 90.6522 10 90.6522 10.44C90.6522 10.8 90.5655 11.24 90.3922 11.76C90.2189 12.28 89.9589 12.7867 89.6122 13.28C89.2789 13.76 88.8589 14.1733 88.3522 14.52C87.8455 14.8533 87.2589 15.02 86.5922 15.02H85.9322C85.4389 14.9133 84.9855 14.7933 84.5722 14.66C84.1722 14.5133 83.7922 14.4 83.4322 14.32C83.3789 14.5333 83.3455 14.74 83.3322 14.94C83.3322 15.1267 83.3322 15.3133 83.3322 15.5C83.3322 15.8867 83.3722 16.2667 83.4522 16.64C83.5455 17 83.6855 17.3333 83.8722 17.64C84.0589 17.9467 84.2922 18.2067 84.5722 18.42C84.8655 18.62 85.2189 18.7467 85.6322 18.8C85.8855 18.8533 86.1055 18.8867 86.2922 18.9C86.4789 18.9 86.6322 18.9067 86.7522 18.92C86.8855 18.92 86.9789 18.94 87.0322 18.98C87.0989 19.0067 87.1322 19.0667 87.1322 19.16C86.9989 19.2 86.8589 19.2267 86.7122 19.24C86.5789 19.2533 86.4389 19.26 86.2922 19.26C85.8255 19.26 85.4055 19.1867 85.0322 19.04C84.6589 18.88 84.3389 18.7 84.0722 18.5C84.3789 18.8067 84.7455 19.0267 85.1722 19.16C85.5989 19.28 86.0189 19.34 86.4322 19.34C86.6589 19.34 86.8922 19.32 87.1322 19.28C87.1055 19.36 87.0922 19.4067 87.0922 19.42C87.0922 19.5 87.1255 19.5533 87.1922 19.58C87.2455 19.5667 87.3389 19.5333 87.4722 19.48C87.6055 19.4133 87.7389 19.3533 87.8722 19.3C88.0189 19.2333 88.1589 19.18 88.2922 19.14C88.4255 19.0867 88.5189 19.06 88.5722 19.06C88.6389 19.06 88.6989 19.0733 88.7522 19.1C88.8055 19.1133 88.8322 19.1867 88.8322 19.32C88.8322 19.4533 88.7855 19.6133 88.6922 19.8C88.5989 19.9867 88.4589 20.1733 88.2722 20.36ZM85.5122 12.44L85.9522 12.52C86.0989 12.5467 86.2322 12.56 86.3522 12.56C86.4855 12.56 86.6389 12.52 86.8122 12.44C86.9989 12.3467 87.1789 12.22 87.3522 12.06C87.5389 11.9 87.6989 11.7 87.8322 11.46C87.9789 11.22 88.0855 10.9467 88.1522 10.64L88.1922 10.52C88.0055 10.52 87.7255 10.5667 87.3522 10.66C86.9789 10.7533 86.5922 10.88 86.1922 11.04C85.7922 11.1867 85.4189 11.3667 85.0722 11.58C84.7255 11.78 84.4855 12 84.3522 12.24C84.5522 12.28 84.7455 12.32 84.9322 12.36C85.1322 12.3867 85.3255 12.4133 85.5122 12.44ZM84.5922 13.92C84.6189 13.8933 84.6322 13.8533 84.6322 13.8C84.6455 13.7467 84.6522 13.7067 84.6522 13.68L83.7122 13.34L83.6122 13.62L84.5922 13.92ZM84.0322 18.46C83.9389 18.3533 83.8455 18.2467 83.7522 18.14C83.6722 18.0467 83.6055 17.9533 83.5522 17.86C83.6722 18.0867 83.8322 18.2867 84.0322 18.46ZM92.657 18.72C92.657 18.6533 92.677 18.5733 92.717 18.48C92.757 18.3867 92.777 18.2867 92.777 18.18C92.817 17.86 92.8437 17.6333 92.857 17.5C92.8704 17.3533 92.877 17.2267 92.877 17.12C92.877 16.56 92.857 15.96 92.817 15.32C92.7904 14.6667 92.757 14.04 92.717 13.44C92.717 13.2533 92.7104 13.0333 92.697 12.78C92.697 12.5267 92.6837 12.3267 92.657 12.18C92.697 11.7133 92.7304 11.2533 92.757 10.8C92.7837 10.3467 92.797 9.88667 92.797 9.42V8.92C92.797 8.74667 92.7904 8.57333 92.777 8.4C92.817 8.44 92.857 8.46 92.897 8.46C92.9504 8.46 93.0037 8.44 93.057 8.4C93.1237 8.36 93.1837 8.34 93.237 8.34C93.3304 8.34 93.4037 8.44 93.457 8.64C93.5237 8.84 93.557 9.28 93.557 9.96H93.737C93.8037 9.21333 93.9037 8.62 94.037 8.18C94.1837 7.74 94.3304 7.52 94.477 7.52C94.5437 7.52 94.6504 7.66667 94.797 7.96C94.9437 8.24 95.017 8.68667 95.017 9.3L95.237 8.94C95.3837 8.76667 95.5437 8.58667 95.717 8.4C95.9037 8.21333 96.1104 8.04667 96.337 7.9C96.5637 7.75333 96.817 7.63333 97.097 7.54C97.377 7.43333 97.697 7.38 98.057 7.38C98.7504 7.38 99.3504 7.54 99.857 7.86C100.377 8.16667 100.81 8.57333 101.157 9.08C101.504 9.57333 101.784 10.14 101.997 10.78C102.224 11.4067 102.397 12.0467 102.517 12.7C102.637 13.34 102.717 13.96 102.757 14.56C102.797 15.16 102.817 15.6733 102.817 16.1C102.817 16.4867 102.79 16.72 102.737 16.8C102.697 16.8667 102.617 16.9067 102.497 16.92C102.47 15.8933 102.404 14.8467 102.297 13.78C102.19 12.7133 101.937 11.68 101.537 10.68C101.897 11.7333 102.124 12.7733 102.217 13.8C102.324 14.8133 102.377 15.8333 102.377 16.86C102.297 16.82 102.224 16.8 102.157 16.8C102.104 16.8 102.057 16.82 102.017 16.86C102.017 16.9667 102.024 17.08 102.037 17.2C102.05 17.3067 102.057 17.4133 102.057 17.52C102.07 17.6267 102.077 17.7267 102.077 17.82C101.997 18.1267 101.917 18.3467 101.837 18.48C101.757 18.6133 101.684 18.68 101.617 18.68C101.537 18.68 101.47 18.6467 101.417 18.58C101.364 18.5 101.31 18.4067 101.257 18.3C101.217 18.1933 101.17 18.08 101.117 17.96C101.077 17.8267 101.017 17.7 100.937 17.58C100.964 17.3533 100.984 17.1733 100.997 17.04C101.01 16.8933 101.017 16.7733 101.017 16.68C101.017 16.32 101.01 15.8867 100.997 15.38C100.984 14.8733 100.944 14.3467 100.877 13.8C100.824 13.24 100.73 12.6867 100.597 12.14C100.477 11.58 100.304 11.0867 100.077 10.66C99.8637 10.22 99.5904 9.86667 99.257 9.6C98.9237 9.32 98.5237 9.18 98.057 9.18C97.737 9.18 97.4504 9.28667 97.197 9.5C96.957 9.71333 96.7437 9.98667 96.557 10.32C96.3837 10.6533 96.2304 11.02 96.097 11.42C95.9637 11.8067 95.857 12.18 95.777 12.54C95.897 12.1667 96.017 11.7867 96.137 11.4C96.2704 11.0133 96.4237 10.66 96.597 10.34C96.7837 10.02 96.997 9.76 97.237 9.56C97.477 9.34667 97.757 9.24 98.077 9.24C98.4904 9.24 98.8437 9.35333 99.137 9.58C99.4437 9.80667 99.697 10.1 99.897 10.46C100.11 10.82 100.277 11.2333 100.397 11.7C100.53 12.1533 100.63 12.62 100.697 13.1C100.764 13.5667 100.804 14.0267 100.817 14.48C100.844 14.92 100.857 15.3 100.857 15.62C100.857 15.8733 100.85 16.1267 100.837 16.38C100.837 16.6333 100.83 16.8933 100.817 17.16C100.697 16.6533 100.604 16.1267 100.537 15.58C100.484 15.02 100.424 14.4733 100.357 13.94C100.29 13.3933 100.204 12.8733 100.097 12.38C100.004 11.8733 99.8637 11.4067 99.677 10.98L99.817 10.78C99.6837 10.4733 99.5304 10.24 99.357 10.08C99.197 9.90667 99.037 9.78 98.877 9.7C98.717 9.62 98.5704 9.57333 98.437 9.56C98.3037 9.54667 98.217 9.54 98.177 9.54C97.8437 9.54 97.5437 9.66 97.277 9.9C97.0237 10.14 96.797 10.4667 96.597 10.88C96.4104 11.28 96.2437 11.7467 96.097 12.28C95.9504 12.8133 95.8237 13.3733 95.717 13.96C95.6104 14.5467 95.517 15.14 95.437 15.74C95.357 16.3267 95.2904 16.88 95.237 17.4H95.417C95.4837 16.9467 95.5504 16.4467 95.617 15.9C95.697 15.3533 95.777 14.8 95.857 14.24C95.9504 13.6667 96.057 13.1133 96.177 12.58C96.297 12.0467 96.437 11.5667 96.597 11.14C96.7704 10.7133 96.9704 10.3667 97.197 10.1C97.4104 9.84667 97.6704 9.7 97.977 9.66C97.6837 9.72667 97.437 9.91333 97.237 10.22C97.0237 10.54 96.837 10.9333 96.677 11.4C96.517 11.8667 96.3704 12.38 96.237 12.94C96.117 13.4867 96.0037 14.0133 95.897 14.52L95.497 17.44C95.4437 17.6267 95.4037 17.7933 95.377 17.94L95.297 18.36C95.2704 18.4933 95.2437 18.64 95.217 18.8C95.1904 18.9467 95.157 19.12 95.117 19.32L95.057 19.56H94.937L92.917 18.88C92.8504 18.8667 92.797 18.8467 92.757 18.82C92.7304 18.7933 92.697 18.76 92.657 18.72ZM96.137 8.46C95.8704 8.68667 95.657 8.93333 95.497 9.2C95.3504 9.45333 95.2104 9.71333 95.077 9.98V10C95.2637 9.61333 95.5237 9.22 95.857 8.82C96.177 8.44667 96.6037 8.16667 97.137 7.98C96.9637 8.03333 96.797 8.08667 96.637 8.14C96.4504 8.20667 96.2837 8.31333 96.137 8.46ZM98.537 7.8C98.4704 7.78667 98.377 7.78 98.257 7.78C98.6837 7.88667 99.0837 8.00667 99.457 8.14C99.8304 8.26 100.184 8.50667 100.517 8.88C100.29 8.57333 99.9904 8.33333 99.617 8.16C99.257 7.98667 98.897 7.86667 98.537 7.8ZM99.077 10.08C98.9704 10 98.8437 9.94 98.697 9.9C98.5637 9.84667 98.397 9.78 98.197 9.7L98.177 9.66C98.4037 9.67333 98.6037 9.72667 98.777 9.82C98.9504 9.9 99.117 10.0467 99.277 10.26L99.077 10.08ZM100.557 8.92C100.744 9.14667 100.917 9.40667 101.077 9.7C101.237 9.99333 101.377 10.2533 101.497 10.48C101.364 10.1733 101.237 9.89333 101.117 9.64C100.997 9.38667 100.81 9.14667 100.557 8.92Z" fill="#57E400"/>
<path d="M28.6667 0V26H22.5248V0H28.6667ZM10.2412 2.16098C15.8957 2.16098 20.4823 7.01371 20.4823 12.9962C20.4823 18.9787 15.8957 23.8314 10.2412 23.8314C4.58667 23.8314 0 18.9787 0 12.9962C0 7.01371 4.58667 2.16098 10.2412 2.16098ZM35.0593 6.4981L36.8582 8.40128L38.657 6.4981H43V11.093L41.2012 12.9962L43 14.8994V19.4943H38.657L36.8582 17.5911L35.0593 19.4943H30.7163V14.8994L32.5152 12.9962L30.7163 11.093V6.4981H35.0593ZM10.2412 8.66667C7.98367 8.66667 6.149 10.6078 6.149 12.9962C6.149 15.3847 7.98367 17.3258 10.2412 17.3258C12.4987 17.3258 14.3333 15.3847 14.3333 12.9962C14.3333 10.6078 12.4987 8.66667 10.2412 8.66667Z" fill="#57E400"/>
</svg>
